<svg width="32" height="32" viewBox="0 0 32 32" fill="none" xmlns="http://www.w3.org/2000/svg">
<rect width="32" height="32" rx="4" fill="white"/>
<path d="M15.2607 3V13.4104C13.6749 13.7622 12.1907 14.4041 10.8623 15.2829V7.83956C10.8623 6.94687 11.2646 6.10758 11.9475 5.57591L15.2607 3Z" fill="#001D33"/>
<path d="M27.4999 10.267H26.8191C24.7724 10.267 23.1136 12.0094 23.1136 14.1593C21.7422 13.5939 20.2624 13.2561 18.7163 13.19C18.7163 9.08754 21.8825 5.76172 25.788 5.76172H27.4999V10.267Z" fill="#001D33"/>
<path d="M23.1471 18.8982V21.9698L18.7498 24.4308V18.0508C20.2914 18.0763 21.7701 18.3735 23.1471 18.8982Z" fill="#001D33"/>
<path d="M23.0731 14.5445V18.5123C21.6972 17.9876 20.2174 17.6915 18.6758 17.6648V13.5752C20.2219 13.6414 21.7027 13.9792 23.0731 14.5445Z" fill="black"/>
<path d="M23.1082 14.5722V18.5377C23.085 18.5296 23.064 18.5203 23.0408 18.5122C21.6649 17.9875 20.1851 17.6914 18.6435 17.6647C18.5672 17.6636 18.491 17.6624 18.4147 17.6624C17.3284 17.6624 16.273 17.7959 15.2596 18.0501C13.666 18.4471 12.1818 19.1402 10.8611 20.0712C8.03532 22.0608 5.95877 25.1359 5.17523 28.7299C5.09014 29.1199 4.54531 29.0747 4.52321 28.6753C4.50773 28.3956 4.5 28.1135 4.5 27.8302C4.5 22.7388 7.03959 18.2695 10.8611 15.7447C12.1895 14.8671 13.6737 14.224 15.2596 13.8723C16.1702 13.6703 17.114 13.5635 18.0821 13.5635C18.2699 13.5635 18.4567 13.567 18.6435 13.5762C20.1896 13.6413 21.6704 13.9802 23.0408 14.5455C23.064 14.5537 23.0861 14.563 23.1082 14.5722Z" fill="#0076CE"/>
<path d="M15.2606 18.5127V23.0203C15.2606 23.9605 14.8937 24.859 14.2461 25.5068L10.8633 28.8883V20.5337C12.1828 19.6027 13.667 18.9097 15.2606 18.5127Z" fill="#001D33"/>
</svg>
