<svg width="110" height="92" viewBox="0 0 110 92" fill="none" xmlns="http://www.w3.org/2000/svg">
<g clip-path="url(#clip0_11510_946)">
<path d="M70.256 20.3301H41.4328C40.4131 20.3301 39.5865 21.2466 39.5865 22.3772V89.6229C39.5865 90.7535 40.4131 91.67 41.4328 91.67H70.256C71.2756 91.67 72.1022 90.7535 72.1022 89.6229V22.3772C72.1022 21.2466 71.2756 20.3301 70.256 20.3301Z" fill="#AEB4C1"/>
<path d="M69.4045 20.3301H41.4148C40.4051 20.3301 39.5865 21.2377 39.5865 22.3573V89.6428C39.5865 90.7624 40.4051 91.67 41.4148 91.67H69.4045C70.4143 91.67 71.2329 90.7624 71.2329 89.6428V22.3573C71.2329 21.2377 70.4143 20.3301 69.4045 20.3301Z" fill="#E5E5E5"/>
<path d="M72.1023 48.2832H39.5866V49.734H72.1023V48.2832Z" fill="#AEB4C1"/>
<path d="M71.2419 48.7812H39.5866V49.7352H71.2419V48.7812Z" fill="#C2C1C0"/>
<path d="M45.708 35.5654H44.5877C44.2561 35.5654 43.9872 35.8635 43.9872 36.2312V42.611C43.9872 42.9787 44.2561 43.2768 44.5877 43.2768H45.708C46.0397 43.2768 46.3085 42.9787 46.3085 42.611V36.2312C46.3085 35.8635 46.0397 35.5654 45.708 35.5654Z" fill="#AEB4C1"/>
<path d="M44.5341 35.5654H45.511C45.7261 35.5654 45.9053 35.7642 45.9053 36.0027V42.8296C45.9053 43.078 45.7261 43.2768 45.502 43.2768H44.543C44.2383 43.2768 43.9963 43.0085 43.9963 42.6706V36.1716C43.9963 35.8337 44.2383 35.5654 44.543 35.5654H44.5341Z" fill="#C2C1C0"/>
<path d="M45.5915 53.8486H44.7042C44.3082 53.8486 43.9872 54.2046 43.9872 54.6436V63.9151C43.9872 64.3542 44.3082 64.7101 44.7042 64.7101H45.5915C45.9874 64.7101 46.3085 64.3542 46.3085 63.9151V54.6436C46.3085 54.2046 45.9874 53.8486 45.5915 53.8486Z" fill="#AEB4C1"/>
<path d="M44.6413 53.8486H45.4389C45.6988 53.8486 45.905 54.0772 45.905 54.3654V64.1735C45.905 64.4716 45.6899 64.7101 45.421 64.7101H44.6413C44.2828 64.7101 43.996 64.3921 43.996 63.9946V54.5741C43.996 54.1766 44.2828 53.8586 44.6413 53.8586V53.8486Z" fill="#C2C1C0"/>
<path opacity="0.5" d="M65.4164 56.1338H65.4075C64.4967 56.1338 63.7584 56.9524 63.7584 57.9623V81.6826C63.7584 82.6924 64.4967 83.511 65.4075 83.511H65.4164C66.3272 83.511 67.0655 82.6924 67.0655 81.6826V57.9623C67.0655 56.9524 66.3272 56.1338 65.4164 56.1338Z" fill="white"/>
<path opacity="0.5" d="M65.1833 24.7715H64.7083C63.9262 24.7715 63.2922 25.4744 63.2922 26.3416V43.3145C63.2922 44.1816 63.9262 44.8846 64.7083 44.8846H65.1833C65.9654 44.8846 66.5994 44.1816 66.5994 43.3145V26.3416C66.5994 25.4744 65.9654 24.7715 65.1833 24.7715Z" fill="white"/>
<path d="M53.8907 51.7822H28.1595C27.0408 51.7822 26.134 52.7877 26.134 54.0281V89.4347C26.134 90.675 27.0408 91.6805 28.1595 91.6805H53.8907C55.0093 91.6805 55.9162 90.675 55.9162 89.4347V54.0281C55.9162 52.7877 55.0093 51.7822 53.8907 51.7822Z" fill="#A3A3A3"/>
<path d="M27.3439 51.7824H53.81C54.4822 51.7824 55.0289 52.3886 55.0289 53.1339V89.8423C55.0289 90.8559 54.285 91.6807 53.3708 91.6807H27.3439C26.6717 91.6807 26.125 91.0745 26.125 90.3292V53.1239C26.125 52.3786 26.6717 51.7725 27.3439 51.7725V51.7824Z" fill="#E5E5E5"/>
<path d="M41.0206 85.8371C46.1189 85.8371 50.2519 81.2545 50.2519 75.6016C50.2519 69.9488 46.1189 65.3662 41.0206 65.3662C35.9222 65.3662 31.7892 69.9488 31.7892 75.6016C31.7892 81.2545 35.9222 85.8371 41.0206 85.8371Z" fill="#A3A3A3"/>
<path d="M41.0474 85.4905C45.8834 85.4905 49.8037 81.1082 49.8037 75.7023C49.8037 70.2964 45.8834 65.9141 41.0474 65.9141C36.2114 65.9141 32.2911 70.2964 32.2911 75.7023C32.2911 81.1082 36.2114 85.4905 41.0474 85.4905Z" fill="#C2C1C0"/>
<path d="M48.6924 76.247C48.5311 80.8877 45.1612 84.5943 41.0295 84.5943C36.8978 84.5943 33.6534 81.0169 33.3756 76.4954C33.6803 76.9824 34.1822 77.3004 34.7558 77.3004C35.4549 77.3004 36.0554 76.8234 36.3153 76.1377C36.5662 76.8234 37.1667 77.3004 37.8658 77.3004C38.5649 77.3004 39.1564 76.8234 39.4163 76.1476C39.6762 76.8333 40.2767 77.3004 40.9758 77.3004C41.6748 77.3004 42.2664 76.8234 42.5263 76.1476C42.7862 76.8333 43.3867 77.3004 44.0768 77.3004C44.7669 77.3004 45.3763 76.8234 45.6362 76.1476C45.8961 76.8333 46.4877 77.3004 47.1867 77.3004C47.8858 77.3004 48.4235 76.8731 48.6924 76.2371V76.247Z" fill="#BAE4EE"/>
<path d="M55.0288 60.3389H26.1339V60.9749H55.0288V60.3389Z" fill="#707071"/>
<path d="M55.0467 60.5576H26.1339V60.975H55.0467V60.5576Z" fill="#A3A3A3"/>
<path d="M30.1672 55.2588H28.4553C28.4256 55.2588 28.4016 55.2855 28.4016 55.3184V57.0972C28.4016 57.1301 28.4256 57.1568 28.4553 57.1568H30.1672C30.1969 57.1568 30.2209 57.1301 30.2209 57.0972V55.3184C30.2209 55.2855 30.1969 55.2588 30.1672 55.2588Z" fill="#A3A3A3"/>
<path d="M30.1672 55.4189H28.4553C28.4256 55.4189 28.4016 55.4456 28.4016 55.4786V57.0983C28.4016 57.1313 28.4256 57.158 28.4553 57.158H30.1672C30.1969 57.158 30.2209 57.1313 30.2209 57.0983V55.4786C30.2209 55.4456 30.1969 55.4189 30.1672 55.4189Z" fill="#C2C1C0"/>
<path d="M37.8659 55.2588H34.3885C34.3439 55.2588 34.3078 55.2988 34.3078 55.3482V57.0674C34.3078 57.1168 34.3439 57.1568 34.3885 57.1568H37.8659C37.9104 57.1568 37.9466 57.1168 37.9466 57.0674V55.3482C37.9466 55.2988 37.9104 55.2588 37.8659 55.2588Z" fill="#A3A3A3"/>
<path d="M37.8659 55.4189H34.3885C34.3439 55.4189 34.3078 55.459 34.3078 55.5084V57.0685C34.3078 57.1179 34.3439 57.158 34.3885 57.158H37.8659C37.9104 57.158 37.9466 57.1179 37.9466 57.0685V55.5084C37.9466 55.459 37.9104 55.4189 37.8659 55.4189Z" fill="#C2C1C0"/>
<path d="M52.842 56.1837C52.842 55.5251 52.3605 54.9912 51.7665 54.9912C51.1726 54.9912 50.691 55.5251 50.691 56.1837C50.691 56.8423 51.1726 57.3762 51.7665 57.3762C52.3605 57.3762 52.842 56.8423 52.842 56.1837Z" fill="#AEADAE"/>
<path d="M51.8202 55.0801H51.8113C51.242 55.0801 50.7806 55.5917 50.7806 56.2229V56.2427C50.7806 56.8739 51.242 57.3855 51.8113 57.3855H51.8202C52.3895 57.3855 52.8509 56.8739 52.8509 56.2427V56.2229C52.8509 55.5917 52.3895 55.0801 51.8202 55.0801Z" fill="#C2C1C0"/>
<path d="M48.4055 55.0732H48.3965C47.8273 55.0732 47.3658 55.5849 47.3658 56.216V56.226C47.3658 56.8571 47.8273 57.3688 48.3965 57.3688H48.4055C48.9747 57.3688 49.4362 56.8571 49.4362 56.226V56.216C49.4362 55.5849 48.9747 55.0732 48.4055 55.0732Z" fill="#AEADAE"/>
<path d="M48.4503 55.1621H48.4323C47.8879 55.1621 47.4465 55.6515 47.4465 56.2552V56.285C47.4465 56.8887 47.8879 57.3781 48.4323 57.3781H48.4503C48.9947 57.3781 49.4361 56.8887 49.4361 56.285V56.2552C49.4361 55.6515 48.9947 55.1621 48.4503 55.1621Z" fill="#C2C1C0"/>
<path d="M33.1246 55.2812H31.4128C31.3831 55.2812 31.359 55.3079 31.359 55.3409V57.1196C31.359 57.1526 31.3831 57.1793 31.4128 57.1793H33.1246C33.1543 57.1793 33.1784 57.1526 33.1784 57.1196V55.3409C33.1784 55.3079 33.1543 55.2812 33.1246 55.2812Z" fill="#A3A3A3"/>
<path d="M33.1247 55.4404H31.4128C31.3831 55.4404 31.3591 55.4671 31.3591 55.5001V57.1198C31.3591 57.1528 31.3831 57.1795 31.4128 57.1795H33.1247C33.1544 57.1795 33.1784 57.1528 33.1784 57.1198V55.5001C33.1784 55.4671 33.1544 55.4404 33.1247 55.4404Z" fill="#C2C1C0"/>
<path d="M83.431 73.2158H59.2145C58.368 73.2158 57.6819 73.9766 57.6819 74.9151V89.9801C57.6819 90.9185 58.368 91.6793 59.2145 91.6793H83.431C84.2774 91.6793 84.9635 90.9185 84.9635 89.9801V74.9151C84.9635 73.9766 84.2774 73.2158 83.431 73.2158Z" fill="#949CB2"/>
<path d="M83.431 73.2158H59.2145C58.368 73.2158 57.6819 73.9766 57.6819 74.9151V89.1553C57.6819 90.0937 58.368 90.8545 59.2145 90.8545H83.431C84.2774 90.8545 84.9635 90.0937 84.9635 89.1553V74.9151C84.9635 73.9766 84.2774 73.2158 83.431 73.2158Z" fill="#ADB8D1"/>
<path d="M78.0893 74.4287H60.7112C59.8647 74.4287 59.1786 75.1895 59.1786 76.128V87.6553C59.1786 88.5937 59.8647 89.3545 60.7112 89.3545H78.0893C78.9358 89.3545 79.6219 88.5937 79.6219 87.6553V76.128C79.6219 75.1895 78.9358 74.4287 78.0893 74.4287Z" fill="#707687"/>
<path opacity="0.6" d="M76.2699 87.6548V76.1276C76.2699 75.8586 76.0733 75.6406 75.8307 75.6406H60.7111C60.4686 75.6406 60.2719 75.8586 60.2719 76.1276V87.6548C60.2719 87.9237 60.4686 88.1418 60.7111 88.1418H75.8307C76.0733 88.1418 76.2699 87.9237 76.2699 87.6548Z" fill="#383838"/>
<path opacity="0.6" d="M76.261 87.6652V77.0621C76.261 76.7932 76.0644 76.5752 75.8218 76.5752H60.7022C60.4596 76.5752 60.263 76.7932 60.263 77.0621V87.6652C60.263 87.9341 60.4596 88.1522 60.7022 88.1522H75.8218C76.0644 88.1522 76.261 87.9341 76.261 87.6652Z" fill="#565656"/>
<path d="M78.4388 87.4957V76.3062C78.4388 75.944 78.174 75.6504 77.8473 75.6504H77.8384C77.5117 75.6504 77.2468 75.944 77.2468 76.3062V87.4957C77.2468 87.8579 77.5117 88.1515 77.8384 88.1515H77.8473C78.174 88.1515 78.4388 87.8579 78.4388 87.4957Z" fill="#ADB8D1"/>
<path opacity="0.31" d="M69.002 83.5069L64.0652 78.0331C63.8342 77.777 63.4596 77.777 63.2286 78.0331L63.2223 78.0401C62.9913 78.2963 62.9913 78.7115 63.2223 78.9677L68.1591 84.4415C68.3901 84.6976 68.7647 84.6976 68.9957 84.4415L69.002 84.4344C69.233 84.1783 69.233 83.7631 69.002 83.5069Z" fill="white"/>
<path opacity="0.31" d="M74.4976 86.0038L70.9614 82.0829C70.7304 81.8268 70.3558 81.8268 70.1248 82.0829L70.1185 82.0899C69.8875 82.3461 69.8875 82.7613 70.1185 83.0175L73.6548 86.9384C73.8858 87.1945 74.2603 87.1945 74.4913 86.9384L74.4976 86.9314C74.7286 86.6752 74.7286 86.26 74.4976 86.0038Z" fill="white"/>
<path opacity="0.64" d="M69.6729 80.5492L67.9365 78.6239C67.7055 78.3678 67.3309 78.3678 67.0999 78.6239L67.0936 78.6309C66.8626 78.8871 66.8626 79.3023 67.0936 79.5585L68.83 81.4838C69.061 81.7399 69.4356 81.7399 69.6666 81.4838L69.6729 81.4768C69.9039 81.2206 69.9039 80.8054 69.6729 80.5492Z" fill="white"/>
<path d="M83.2068 76.415H81.3068C80.9801 76.415 80.7153 76.7087 80.7153 77.0709V77.0808C80.7153 77.4431 80.9801 77.7367 81.3068 77.7367H83.2068C83.5335 77.7367 83.7983 77.4431 83.7983 77.0808V77.0709C83.7983 76.7087 83.5335 76.415 83.2068 76.415Z" fill="#949CB2"/>
<path d="M83.2068 78.6416H81.3068C80.9801 78.6416 80.7153 78.9352 80.7153 79.2975V79.3074C80.7153 79.6696 80.9801 79.9633 81.3068 79.9633H83.2068C83.5335 79.9633 83.7983 79.6696 83.7983 79.3074V79.2975C83.7983 78.9352 83.5335 78.6416 83.2068 78.6416Z" fill="#949CB2"/>
<path d="M83.2068 80.8672H81.3068C80.9801 80.8672 80.7153 81.1608 80.7153 81.5231V81.533C80.7153 81.8952 80.9801 82.1889 81.3068 82.1889H83.2068C83.5335 82.1889 83.7983 81.8952 83.7983 81.533V81.5231C83.7983 81.1608 83.5335 80.8672 83.2068 80.8672Z" fill="#949CB2"/>
<path d="M82.2031 86.0247C82.911 86.0247 83.4848 85.3885 83.4848 84.6037C83.4848 83.8188 82.911 83.1826 82.2031 83.1826C81.4953 83.1826 80.9215 83.8188 80.9215 84.6037C80.9215 85.3885 81.4953 86.0247 82.2031 86.0247Z" fill="#E5E5E5"/>
<path d="M82.2121 89.4544C82.9199 89.4544 83.4937 88.8182 83.4937 88.0333C83.4937 87.2485 82.9199 86.6123 82.2121 86.6123C81.5043 86.6123 80.9305 87.2485 80.9305 88.0333C80.9305 88.8182 81.5043 89.4544 82.2121 89.4544Z" fill="#E5E5E5"/>
<path d="M81.5578 83.9434L81.3867 84.2583C81.3459 84.3336 81.3677 84.4313 81.4356 84.4766L82.6409 85.2815C82.7088 85.3268 82.7969 85.3026 82.8378 85.2273L83.0089 84.9124C83.0497 84.8371 83.0278 84.7394 82.96 84.6941L81.7546 83.8892C81.6868 83.8439 81.5987 83.8681 81.5578 83.9434Z" fill="#707687"/>
<path d="M81.5703 87.3857L81.3992 87.7007C81.3584 87.7759 81.3803 87.8736 81.4481 87.9189L82.6535 88.7239C82.7213 88.7692 82.8094 88.7449 82.8503 88.6697L83.0214 88.3548C83.0622 88.2795 83.0404 88.1818 82.9725 88.1365L81.7671 87.3316C81.6993 87.2863 81.6112 87.3105 81.5703 87.3857Z" fill="#707687"/>
</g>
<defs>
<clipPath id="clip0_11510_946">
<rect width="110" height="91.4737" fill="white" transform="translate(0 0.510742)"/>
</clipPath>
</defs>
</svg>
