<svg width="37" height="37" viewBox="0 0 37 37" fill="none" xmlns="http://www.w3.org/2000/svg">
<path d="M5.15259 15.6461C5.15259 18.273 10.9463 20.4048 18.0901 20.4048C25.2338 20.4048 31.0276 18.273 31.0276 15.6461C31.0276 13.0164 5.15259 13.0164 5.15259 15.6461Z" fill="#FFEA00"/>
<path d="M29.7282 15.6439C27.4445 14.1505 24.2326 12.913 18.0901 12.9102C11.9448 12.913 8.73292 14.1477 6.45198 15.6439C6.2776 15.7592 6.2326 15.9842 6.35917 16.1502C7.61354 17.7898 12.9601 19.4042 18.0901 19.4098C23.2201 19.4042 28.7776 17.548 29.821 16.153C29.9448 15.9842 29.9054 15.7592 29.7282 15.6439Z" fill="#EDBF00"/>
<path d="M32.7151 35.7499V34.8724C32.7151 30.153 25.3042 27.8158 18.0901 27.8242C10.921 27.8327 3.46509 29.8717 3.46509 34.8724V35.7499H32.7151Z" fill="url(#paint0_linear_11533_7116)"/>
<path d="M16.5432 35.7501H8.401V29.3545C8.90444 29.1576 9.436 28.9832 9.98725 28.8314C10.8001 28.6007 11.6579 28.4123 12.5466 28.2661C13.1485 28.1648 13.7644 28.0832 14.3888 28.0186L16.5432 35.7501Z" fill="url(#paint1_linear_11533_7116)"/>
<path d="M14.4226 35.7507H10.2967L9.9873 28.8319C10.8001 28.6013 11.6579 28.4129 12.5467 28.2666L14.4226 35.7507Z" fill="url(#paint2_linear_11533_7116)"/>
<path d="M27.7791 29.4393V35.7506H19.637L21.7885 28.0303C22.4101 28.0978 23.026 28.1878 23.6251 28.2946C24.5166 28.455 25.3773 28.6518 26.1901 28.8937C26.7442 29.0568 27.2757 29.2396 27.7791 29.4393Z" fill="url(#paint3_linear_11533_7116)"/>
<path d="M26.1901 28.893L25.8835 35.7499H21.7576L23.6251 28.2939C24.5166 28.4543 25.3773 28.6511 26.1901 28.893Z" fill="url(#paint4_linear_11533_7116)"/>
<path d="M18.0901 26.2383H15.5364V29.0452C15.5364 30.3136 16.577 31.343 17.8595 31.343H18.3236C19.6061 31.343 20.6467 30.3136 20.6467 29.0452V26.2383C20.6439 26.2383 18.0901 26.2383 18.0901 26.2383Z" fill="#E59600"/>
<path d="M25.7767 15.0898H23.7039H12.4764H10.4035C8.74698 15.0898 7.39136 16.5355 7.39136 18.2989C7.39136 20.0623 8.74698 21.508 10.4035 21.508H12.4764H23.701H25.7739C27.4304 21.508 28.786 20.0623 28.786 18.2989C28.786 16.5355 27.4332 15.0898 25.7767 15.0898Z" fill="#E59600"/>
<path d="M18.0901 4.0166C13.1963 4.0166 8.6626 9.25066 8.6626 16.7825C8.6626 24.275 13.3342 27.9791 18.0901 27.9791C22.846 27.9791 27.5176 24.275 27.5176 16.7825C27.5176 9.25066 22.9839 4.0166 18.0901 4.0166Z" fill="#FFCA28"/>
<path d="M19.1757 20.045C19.1447 20.0337 19.1166 20.0253 19.0857 20.0225H17.0944C17.0635 20.0253 17.0326 20.0337 17.0044 20.045C16.8244 20.1181 16.726 20.3037 16.8104 20.5034C16.8947 20.7031 17.2913 21.26 18.0901 21.26C18.8888 21.26 19.2854 20.7003 19.3697 20.5034C19.4541 20.3065 19.3557 20.1181 19.1757 20.045Z" fill="#E59600"/>
<path d="M20.4582 22.3209C19.5638 22.8525 16.6247 22.8525 15.7304 22.3209C15.2157 22.0143 14.6897 22.484 14.9035 22.9509C15.1144 23.4093 16.7148 24.4753 18.1013 24.4753C19.4879 24.4753 21.0685 23.4093 21.2794 22.9509C21.4904 22.4812 20.9729 22.0143 20.4582 22.3209Z" fill="#795548"/>
<path d="M24.601 15.1764C24.601 15.1736 23.9626 14.1357 22.4776 14.1357C20.9926 14.1357 20.3513 15.1736 20.3513 15.1736V15.1764C20.2979 15.2523 20.267 15.3423 20.267 15.4407C20.267 15.6911 20.4638 15.8964 20.7085 15.8964C20.7592 15.8964 20.8829 15.8598 20.8942 15.8542C21.7829 15.4745 22.4804 15.4745 22.4804 15.4745C22.4804 15.4745 23.1723 15.4773 24.061 15.857C24.0723 15.8626 24.196 15.8992 24.2467 15.8992C24.4885 15.8992 24.6882 15.6967 24.6882 15.4436C24.6854 15.3423 24.6545 15.2523 24.601 15.1764Z" fill="#6D4C41"/>
<path d="M15.8288 15.1764C15.8316 15.1736 15.1904 14.1357 13.7054 14.1357C12.2204 14.1357 11.5791 15.1736 11.5791 15.1736L11.5819 15.1764C11.5285 15.2523 11.4976 15.3423 11.4976 15.4407C11.4976 15.6911 11.6944 15.8964 11.9391 15.8964C11.9897 15.8964 12.1135 15.8598 12.1247 15.8542C13.0135 15.4745 13.711 15.4745 13.711 15.4745C13.711 15.4745 14.4029 15.4773 15.2916 15.857C15.3029 15.8626 15.4266 15.8992 15.4772 15.8992C15.7219 15.8992 15.9188 15.6967 15.9188 15.4436C15.9132 15.3423 15.8822 15.2523 15.8288 15.1764Z" fill="#6D4C41"/>
<path d="M18.1772 4.00586C5.39722 4.07336 8.01566 16.7015 8.01566 16.7015C8.01566 16.7015 9.45003 19.2299 9.45003 19.1793C9.40222 17.1402 10.2207 13.529 10.8 11.9934C11.0925 11.2171 11.8969 10.7671 12.7097 10.9162C13.9613 11.144 15.9582 11.4252 18.1575 11.4252H18.18C18.18 11.4252 18.1969 11.4252 18.2025 11.4252C20.4019 11.4252 22.3988 11.144 23.6503 10.9162C24.466 10.7671 25.2703 11.2199 25.56 11.9934C26.1394 13.5318 26.955 17.1402 26.91 19.1793C26.91 19.2299 28.3444 16.7015 28.3444 16.7015C28.3444 16.7015 30.9628 4.07336 18.1828 4.00586H18.1772Z" fill="#543930"/>
<path d="M13.7026 18.8551C14.4684 18.8551 15.0892 18.2129 15.0892 17.4207C15.0892 16.6285 14.4684 15.9863 13.7026 15.9863C12.9368 15.9863 12.316 16.6285 12.316 17.4207C12.316 18.2129 12.9368 18.8551 13.7026 18.8551Z" fill="#404040"/>
<path d="M22.4776 18.8551C23.2434 18.8551 23.8642 18.2129 23.8642 17.4207C23.8642 16.6285 23.2434 15.9863 22.4776 15.9863C21.7118 15.9863 21.0911 16.6285 21.0911 17.4207C21.0911 18.2129 21.7118 18.8551 22.4776 18.8551Z" fill="#404040"/>
<path d="M18.2054 3.11426C5.05417 3.11426 6.04417 16.1727 6.04417 16.1727C6.04417 16.1727 9.47824 13.1352 18.2786 13.1352C27.0789 13.1352 30.1192 15.8915 30.1192 15.8915C30.1192 15.8915 31.3567 3.11426 18.2054 3.11426Z" fill="url(#paint5_radial_11533_7116)"/>
<path d="M21.1051 12.7414H15.2551V3.43203C15.2551 2.64734 15.8908 2.01172 16.6754 2.01172H19.6848C20.4695 2.01172 21.1051 2.64734 21.1051 3.43203V12.7414Z" fill="url(#paint6_linear_11533_7116)"/>
<mask id="mask0_11533_7116" style="mask-type:luminance" maskUnits="userSpaceOnUse" x="6" y="3" width="25" height="14">
<path d="M18.2054 3.11426C5.05417 3.11426 6.04417 16.1727 6.04417 16.1727C6.04417 16.1727 9.47824 13.1352 18.2786 13.1352C27.0789 13.1352 30.1192 15.8915 30.1192 15.8915C30.1192 15.8915 31.3567 3.11426 18.2054 3.11426Z" fill="white"/>
</mask>
<g mask="url(#mask0_11533_7116)">
<path opacity="0.5" d="M13.3427 3.76113L15.2973 3.11426V9.66457C14.9008 6.83519 14.3327 4.7877 13.3427 3.76113Z" fill="#EDBF00"/>
</g>
<mask id="mask1_11533_7116" style="mask-type:luminance" maskUnits="userSpaceOnUse" x="6" y="3" width="25" height="14">
<path d="M18.2054 3.11426C5.05417 3.11426 6.04417 16.1727 6.04417 16.1727C6.04417 16.1727 9.47824 13.1352 18.2786 13.1352C27.0789 13.1352 30.1192 15.8915 30.1192 15.8915C30.1192 15.8915 31.3567 3.11426 18.2054 3.11426Z" fill="white"/>
</mask>
<g mask="url(#mask1_11533_7116)">
<path opacity="0.5" d="M23.071 3.76113L21.1163 3.11426V9.66457C21.5129 6.83519 22.081 4.7877 23.071 3.76113Z" fill="#EDBF00"/>
</g>
<path d="M30.8953 15.2272C30.825 15.1091 30.7153 15.0191 30.5944 14.9488C25.5038 12.0182 18.09 12.1166 18.09 12.1166C18.09 12.1166 10.6763 12.0182 5.58566 14.9488C5.46191 15.0191 5.35503 15.1091 5.28472 15.2272C5.13566 15.4803 5.01191 15.9613 5.49566 16.656C5.49566 16.656 8.57534 13.6044 18.09 13.4132C27.6019 13.6072 30.6844 16.656 30.6844 16.656C31.1682 15.9613 31.0444 15.4803 30.8953 15.2272Z" fill="#FFEA00"/>
<defs>
<linearGradient id="paint0_linear_11533_7116" x1="18.0901" y1="27.8245" x2="18.0901" y2="39.5855" gradientUnits="userSpaceOnUse">
<stop offset="0.0032" stop-color="#448AFF"/>
<stop offset="0.4042" stop-color="#3B7DFF"/>
<stop offset="1" stop-color="#2962FF"/>
</linearGradient>
<linearGradient id="paint1_linear_11533_7116" x1="12.4721" y1="28.4916" x2="12.4721" y2="39.1" gradientUnits="userSpaceOnUse">
<stop offset="0.0032" stop-color="#FF9100"/>
<stop offset="0.4399" stop-color="#FF8400"/>
<stop offset="1" stop-color="#FF6D00"/>
</linearGradient>
<linearGradient id="paint2_linear_11533_7116" x1="12.205" y1="28.4337" x2="12.205" y2="39.3211" gradientUnits="userSpaceOnUse">
<stop offset="0.0032" stop-color="#FFFF00"/>
<stop offset="0.6783" stop-color="#FFF200"/>
<stop offset="1" stop-color="#FFEA00"/>
</linearGradient>
<linearGradient id="paint3_linear_11533_7116" x1="23.7081" y1="28.5026" x2="23.7081" y2="39.0956" gradientUnits="userSpaceOnUse">
<stop offset="0.0032" stop-color="#FF9100"/>
<stop offset="0.4399" stop-color="#FF8400"/>
<stop offset="1" stop-color="#FF6D00"/>
</linearGradient>
<linearGradient id="paint4_linear_11533_7116" x1="23.9738" y1="28.4604" x2="23.9738" y2="39.3069" gradientUnits="userSpaceOnUse">
<stop offset="0.0032" stop-color="#FFFF00"/>
<stop offset="0.6783" stop-color="#FFF200"/>
<stop offset="1" stop-color="#FFEA00"/>
</linearGradient>
<radialGradient id="paint5_radial_11533_7116" cx="0" cy="0" r="1" gradientUnits="userSpaceOnUse" gradientTransform="translate(18.0901 9.64432) scale(9.74194 9.55295)">
<stop stop-color="#FFFF00"/>
<stop offset="0.325" stop-color="#FFF600"/>
<stop offset="0.8535" stop-color="#FFDE00"/>
<stop offset="0.9978" stop-color="#FFD600"/>
</radialGradient>
<linearGradient id="paint6_linear_11533_7116" x1="18.1805" y1="2.21855" x2="18.1805" y2="12.6353" gradientUnits="userSpaceOnUse">
<stop stop-color="#FFFF00"/>
<stop offset="0.4462" stop-color="#FFF900"/>
<stop offset="1" stop-color="#FFEA00"/>
</linearGradient>
</defs>
</svg>
