<svg width="86" height="51" viewBox="0 0 86 51" fill="none" xmlns="http://www.w3.org/2000/svg">
<path d="M52.9852 0.641602H51.3756C51.0513 0.641602 50.7883 0.904535 50.7883 1.22888V6.80805C50.7883 7.13239 51.0513 7.39533 51.3756 7.39533H52.9852C53.3095 7.39533 53.5725 7.13239 53.5725 6.80805V1.22888C53.5725 0.904535 53.3095 0.641602 52.9852 0.641602Z" fill="#ADB8D1"/>
<path d="M54.4099 3.07812H50.0162C49.3135 3.07812 48.7438 3.64782 48.7438 4.35057V20.8379C48.7438 21.5407 49.3135 22.1104 50.0162 22.1104H54.4099C55.1127 22.1104 55.6824 21.5407 55.6824 20.8379V4.35057C55.6824 3.64782 55.1127 3.07812 54.4099 3.07812Z" fill="#8A919E"/>
<path d="M71.5388 2.88309C71.5388 2.46982 71.2126 2.14355 70.7993 2.14355H63.5453L58.4011 7.2877C58.2815 7.40733 58.1293 7.47258 57.9552 7.47258H45.2743C44.9263 7.47258 44.6436 7.75535 44.6436 8.10336V9.88696C44.6436 10.235 44.9263 10.5177 45.2743 10.5177H59.4778L64.6111 5.38447C64.7307 5.26484 64.883 5.19959 65.057 5.19959H70.7884C71.2017 5.19959 71.528 4.87332 71.528 4.46005V2.90485L71.5388 2.88309Z" fill="#3879BA"/>
<mask id="mask0_10023_24032" style="mask-type:luminance" maskUnits="userSpaceOnUse" x="44" y="2" width="28" height="9">
<path d="M71.5388 2.88309C71.5388 2.46982 71.2126 2.14355 70.7993 2.14355H63.5453L58.4011 7.2877C58.2815 7.40733 58.1293 7.47258 57.9552 7.47258H45.2743C44.9263 7.47258 44.6436 7.75535 44.6436 8.10336V9.88696C44.6436 10.235 44.9263 10.5177 45.2743 10.5177H59.4778L64.6111 5.38447C64.7307 5.26484 64.883 5.19959 65.057 5.19959H70.7884C71.2017 5.19959 71.528 4.87332 71.528 4.46005V2.90485L71.5388 2.88309Z" fill="white"/>
</mask>
<g mask="url(#mask0_10023_24032)">
<path d="M72.8655 5.37297C72.8655 5.02495 72.5719 4.74219 72.213 4.74219H64.4913L59.097 9.88633C58.9774 10.006 58.8034 10.0712 58.6294 10.0712H45.3286C44.9697 10.0712 44.676 10.354 44.676 10.702V12.4856C44.676 12.8336 44.9697 13.1164 45.3286 13.1164H60.2281L65.6115 7.98311C65.7311 7.86347 65.9051 7.79822 66.0791 7.79822H72.213C72.5719 7.79822 72.8655 7.51546 72.8655 7.16744V5.38384V5.37297Z" fill="#316A9A"/>
</g>
<path d="M62.4146 26.5368V18.8369C62.4146 18.1341 61.8449 17.5645 61.1421 17.5645H43.1974C42.4947 17.5645 41.925 18.1341 41.925 18.8369V26.5368C41.925 27.2395 42.4947 27.8092 43.1974 27.8092H61.1421C61.8449 27.8092 62.4146 27.2395 62.4146 26.5368Z" fill="#767C89"/>
<mask id="mask1_10023_24032" style="mask-type:luminance" maskUnits="userSpaceOnUse" x="41" y="17" width="22" height="11">
<path d="M62.4147 26.5348V18.8349C62.4147 18.1322 61.845 17.5625 61.1422 17.5625H43.1975C42.4948 17.5625 41.9251 18.1322 41.9251 18.8349V26.5348C41.9251 27.2376 42.4948 27.8073 43.1975 27.8073H61.1422C61.845 27.8073 62.4147 27.2376 62.4147 26.5348Z" fill="white"/>
</mask>
<g mask="url(#mask1_10023_24032)">
<path d="M62.4147 32.1579V21.9131H41.9251V32.1579H62.4147Z" fill="#626771"/>
</g>
<path d="M82.632 22.9043H21.6201C20.2926 22.9043 19.2166 23.9804 19.2166 25.3078V39.7614C19.2166 41.0888 20.2926 42.1649 21.6201 42.1649H82.632C83.9594 42.1649 85.0355 41.0888 85.0355 39.7614V25.3078C85.0355 23.9804 83.9594 22.9043 82.632 22.9043Z" fill="#767C89"/>
<mask id="mask2_10023_24032" style="mask-type:luminance" maskUnits="userSpaceOnUse" x="19" y="22" width="67" height="21">
<path d="M82.632 22.9043H21.6201C20.2926 22.9043 19.2166 23.9804 19.2166 25.3078V39.7614C19.2166 41.0888 20.2926 42.1649 21.6201 42.1649H82.632C83.9594 42.1649 85.0355 41.0888 85.0355 39.7614V25.3078C85.0355 23.9804 83.9594 22.9043 82.632 22.9043Z" fill="white"/>
</mask>
<g mask="url(#mask2_10023_24032)">
<path d="M82.7298 22.9033H21.6091C20.3117 22.9033 19.26 23.9551 19.26 25.2524V38.9883C19.26 40.2857 20.3117 41.3374 21.6091 41.3374H82.7298C84.0272 41.3374 85.0789 40.2857 85.0789 38.9883V25.2524C85.0789 23.9551 84.0272 22.9033 82.7298 22.9033Z" fill="#ADB8D1"/>
<g opacity="0.5">
<path d="M53.9531 22.4668C52.9525 25.0117 51.8106 27.5239 50.6143 30.0036L50.5381 29.6338C52.2238 31.102 53.8769 32.6028 55.5191 34.1145C53.8987 36.9748 52.2021 39.8133 50.3315 42.5866C51.5931 39.6828 53.0286 36.8443 54.5295 34.0275L54.6056 34.4299C52.9416 32.9508 51.2885 31.4609 49.679 29.9383C51.0166 27.4152 52.4196 24.9138 53.9531 22.4668Z" fill="#767C89"/>
</g>
</g>
<path d="M29.5156 21.2734H25.2524C24.5497 21.2734 23.98 21.8431 23.98 22.5459V42.5243C23.98 43.227 24.5497 43.7967 25.2524 43.7967H29.5156C30.2184 43.7967 30.7881 43.227 30.7881 42.5243V22.5459C30.7881 21.8431 30.2184 21.2734 29.5156 21.2734Z" fill="#8A919E"/>
<path d="M78.6405 21.2734H74.3773C73.6746 21.2734 73.1049 21.8431 73.1049 22.5459V42.5243C73.1049 43.227 73.6746 43.7967 74.3773 43.7967H78.6405C79.3433 43.7967 79.913 43.227 79.913 42.5243V22.5459C79.913 21.8431 79.3433 21.2734 78.6405 21.2734Z" fill="#8A919E"/>
<path d="M26.7098 19.085H20.4999C19.7971 19.085 19.2274 19.6547 19.2274 20.3574V44.6969C19.2274 45.3997 19.7971 45.9694 20.4999 45.9694H26.7098C27.4126 45.9694 27.9822 45.3997 27.9822 44.6969V20.3574C27.9822 19.6547 27.4126 19.085 26.7098 19.085Z" fill="#767C89"/>
<mask id="mask3_10023_24032" style="mask-type:luminance" maskUnits="userSpaceOnUse" x="19" y="19" width="9" height="27">
<path d="M26.7099 19.083H20.5C19.7972 19.083 19.2275 19.6527 19.2275 20.3554V44.695C19.2275 45.3977 19.7972 45.9674 20.5 45.9674H26.7099C27.4127 45.9674 27.9824 45.3977 27.9824 44.695V20.3554C27.9824 19.6527 27.4127 19.083 26.7099 19.083Z" fill="white"/>
</mask>
<g mask="url(#mask3_10023_24032)">
<path d="M21.0219 19.083H12.2671V45.9674H21.0219V19.083Z" fill="#626771"/>
</g>
<path d="M83.7847 19.085H77.1615C76.4587 19.085 75.889 19.6547 75.889 20.3574V44.6969C75.889 45.3997 76.4587 45.9694 77.1615 45.9694H83.7847C84.4874 45.9694 85.0571 45.3997 85.0571 44.6969V20.3574C85.0571 19.6547 84.4874 19.085 83.7847 19.085Z" fill="#767C89"/>
<mask id="mask4_10023_24032" style="mask-type:luminance" maskUnits="userSpaceOnUse" x="75" y="19" width="11" height="27">
<path d="M83.7846 19.083H77.1614C76.4586 19.083 75.8889 19.6527 75.8889 20.3554V44.695C75.8889 45.3977 76.4586 45.9674 77.1614 45.9674H83.7846C84.4873 45.9674 85.057 45.3977 85.057 44.695V20.3554C85.057 19.6527 84.4873 19.083 83.7846 19.083Z" fill="white"/>
</mask>
<g mask="url(#mask4_10023_24032)">
<path d="M92.235 19.083H83.0669V45.9674H92.235V19.083Z" fill="#626771"/>
</g>
<path d="M11.0816 22.2298C11.571 22.2298 12.0169 21.9797 12.2779 21.5773L15.1165 17.0748C15.4101 16.618 15.4101 16.0307 15.1165 15.574L12.2779 11.0715C12.0387 10.6908 11.6254 10.4516 11.1795 10.4189V16.8138C11.1795 17.2488 10.8315 17.5968 10.3965 17.5968H5.8831C5.44807 17.5968 5.10006 17.2488 5.10006 16.8138V10.4189C4.65416 10.4407 4.24089 10.68 4.00162 11.0715L1.1631 15.574C0.869461 16.0307 0.869461 16.618 1.1631 17.0748L4.00162 21.5773C4.26264 21.9905 4.70854 22.2298 5.18706 22.2298H5.33932V37.5317C3.42522 38.5105 2.10928 40.5008 2.10928 42.8064C2.10928 45.112 3.30559 46.9391 5.10006 47.9614V43.4589C5.10006 42.9586 5.50245 42.5671 5.99185 42.5671H10.2877C10.788 42.5671 11.1795 42.9695 11.1795 43.4589V47.8527C12.8652 46.7977 13.9854 44.938 13.9854 42.8064C13.9854 40.6748 12.7565 38.641 10.9402 37.6296V22.2298H11.0925H11.0816Z" fill="#ABB8D0"/>
<path opacity="0.2" d="M10.0921 22.2842H8.40637V37.6187H10.0921V22.2842Z" fill="white"/>
<path opacity="0.2" d="M12.4629 12.4522L14.3008 16.1934C14.3335 16.2696 14.3335 16.3566 14.3008 16.4218L12.3976 20.424C12.278 20.685 11.8865 20.598 11.8865 20.3044L11.9409 12.561C11.9409 12.2782 12.3215 12.1912 12.452 12.4414L12.4629 12.4522Z" fill="white"/>
<path opacity="0.2" d="M11.7233 40.4022V45.7856C11.7233 45.7856 13.061 44.7416 13.2893 43.132C13.5177 41.5224 12.6259 40.772 12.4302 40.6088C12.2344 40.4457 11.7233 40.1738 11.7233 40.1738V40.4022Z" fill="white"/>
<path d="M53.6268 48.1894C53.6268 49.6577 52.4304 50.854 50.9622 50.854C49.494 50.854 48.2977 49.6577 48.2977 48.1894C48.2977 47.0366 49.9291 44.5461 50.636 43.5238C50.7882 43.2954 51.1254 43.2954 51.2885 43.5238C51.9954 44.557 53.6268 47.0366 53.6268 48.1894Z" fill="#BAE4EE"/>
<path opacity="0.4" d="M50.0705 49.4179C50.2927 49.4179 50.4729 48.9018 50.4729 48.2651C50.4729 47.6284 50.2927 47.1123 50.0705 47.1123C49.8482 47.1123 49.6681 47.6284 49.6681 48.2651C49.6681 48.9018 49.8482 49.4179 50.0705 49.4179Z" fill="white"/>
</svg>
