<svg width="78" height="50" viewBox="0 0 78 50" fill="none" xmlns="http://www.w3.org/2000/svg">
<path d="M55.112 3.38906C57.6601 3.31475 57.7663 3.29351 58.2122 5.70358C58.5201 7.39169 59.1146 8.51709 60.9726 8.80375C62.0131 8.96301 62.9793 9.53633 63.8711 10.1203C64.3913 10.46 64.7735 10.4069 65.2619 10.0884C66.1962 9.47263 67.1836 8.94178 68.1391 8.34722C68.4683 8.1455 68.6912 8.15611 68.9991 8.40031C70.3899 9.52571 71.6321 10.7785 72.7682 12.1587C73.0548 12.4985 73.023 12.7427 72.8106 13.093C72.1842 14.091 71.6109 15.1209 70.9845 16.1083C70.7509 16.4799 70.7403 16.7559 70.9739 17.1381C71.8445 18.5714 72.4709 20.1109 72.8849 21.7353C72.9911 22.1706 73.2035 22.3617 73.6388 22.4573C74.52 22.6484 75.38 22.9244 76.2612 23.0943C77.0574 23.2535 77.79 23.4022 77.8219 24.4214V29.1885C77.6732 29.7512 77.2698 29.9317 76.7389 30.0484C75.6666 30.282 74.6261 30.5899 73.5538 30.8341C73.1822 30.919 72.9911 31.0995 72.9062 31.4605C72.4921 33.138 71.8339 34.7306 70.942 36.2063C70.7509 36.5355 70.7509 36.7796 70.9526 37.0982C71.5791 38.0962 72.1524 39.126 72.7788 40.1134C73.0336 40.5062 73.0654 40.7823 72.7363 41.1857C71.6321 42.5128 70.4218 43.7338 69.084 44.8274C68.7231 45.1246 68.4789 45.1459 68.0861 44.9017C67.1199 44.2859 66.1113 43.7338 65.1451 43.118C64.7523 42.8738 64.4656 42.8207 64.041 43.0756C62.6077 43.9462 61.0682 44.5832 59.4438 44.9866C59.0085 45.0928 58.828 45.3157 58.7324 45.751C58.4776 46.8977 58.1591 48.0337 57.8937 49.1697C57.7981 49.5626 57.6283 49.7643 57.1823 49.7749C56.5029 49.7749 55.834 49.9766 55.1439 49.8917C54.475 49.7855 54.2627 49.3184 54.1459 48.7132C53.9866 47.8851 53.6681 47.0888 53.5407 46.2607C53.4133 45.3795 52.9249 45.0185 52.1286 44.8274C50.9289 44.5407 49.8141 44.0417 48.7418 43.4365C47.4996 42.7464 47.3934 42.7358 46.2468 43.6913C44.6861 42.2156 43.4545 43.4684 42.1592 44.1797C41.3417 43.0862 40.2163 42.2687 39.3776 41.1751C39.0591 40.7504 39.0803 40.5168 39.3351 40.1134C39.919 39.2216 40.4605 38.3085 40.9914 37.3848C41.2037 37.0238 41.4798 36.6735 41.1825 36.1745C40.3331 34.7624 39.6642 33.276 39.282 31.6729C39.1652 31.1845 38.9317 30.8872 38.369 30.781C37.3285 30.5793 36.3199 30.2396 35.2794 30.0166C34.6105 29.8786 34.4513 29.5388 34.3982 28.8912C34.2602 27.3942 34.2495 25.9184 34.3982 24.4108C34.4619 23.7313 34.6105 23.3703 35.3219 23.2323C36.3836 23.02 37.4347 22.7121 38.4857 22.4254C38.7936 22.3405 39.1015 22.2343 39.1971 21.8309C39.5793 20.1958 40.2694 18.6776 41.0763 17.2231C41.363 16.7028 41.278 16.2994 41.002 15.8641C40.4499 14.9616 39.919 14.038 39.3351 13.1461C39.0697 12.7427 39.0697 12.5091 39.3882 12.0844C40.2163 10.9909 41.3523 10.184 42.1592 9.0798C42.3503 9.18597 42.5627 9.26029 42.7219 9.39831C43.858 10.3538 45.0152 10.5874 46.2362 9.54695C46.7777 9.88669 47.1917 10.6617 47.9668 10.2158C49.485 9.34522 51.0882 8.69758 52.7763 8.23043C53.116 8.13488 53.2965 7.96501 53.3815 7.58279C53.5938 6.54232 53.9335 5.53371 54.1353 4.49324C54.2521 3.86683 54.4962 3.474 55.1333 3.37845L55.112 3.38906ZM55.2182 20.7798C54.7404 21.077 54.3051 21.0877 53.8167 20.7267C53.2647 20.3232 52.6595 19.9941 52.0437 19.6968C51.6084 19.4845 51.4916 19.1978 51.4916 18.7307C51.5129 16.8409 51.4916 14.951 51.4704 13.0612C51.4916 12.8064 51.5872 12.5409 51.3748 12.2437C48.5825 13.6664 46.9475 15.9066 46.7989 19.0173C46.6609 21.8946 47.8712 24.2303 50.3237 25.8016C50.9077 26.1732 51.0457 26.5554 51.0457 27.1712C51.0245 30.9721 51.0351 34.773 51.0457 38.5739C51.0457 40.5275 51.6721 41.1008 53.6363 40.9734C54.3476 40.9734 55.0589 40.9946 55.7703 40.9946C57.3735 40.9946 57.9468 40.4319 57.9468 38.8287C57.9468 34.9217 57.968 31.004 57.9362 27.0969C57.9362 26.4705 58.1273 26.152 58.6687 25.8122C63.319 22.9032 63.4464 16.0233 58.9235 13.0293C58.5626 12.6471 58.1273 12.4242 57.5646 12.2543C57.5646 14.4096 57.5433 16.5011 57.5752 18.6033C57.5752 19.1341 57.4372 19.4526 56.9594 19.7075C56.3648 20.0153 55.7384 20.302 55.2288 20.7585L55.2182 20.7798Z" fill="#FCB644"/>
<path d="M22.061 0.851228C22.1778 0.840611 22.2946 0.829993 22.4114 0.808759L22.4857 0.851228L22.5494 0.808759C27.4438 0.532716 32.3383 0.532717 37.2328 0.670738C38.8465 0.723824 40.4603 0.829993 42.0741 0.883078C45.737 0.999865 48.6354 2.54995 50.7907 5.50149C50.7058 5.84124 50.5784 6.1916 50.5571 6.53134C50.4828 7.77354 49.8776 8.46365 48.6036 8.48488C47.4782 6.27654 45.7158 4.87508 43.2845 4.40793C41.8299 4.12127 40.3435 4.19559 38.8678 4.15313C33.761 3.98325 28.6542 3.8877 23.5474 4.22744C22.422 4.14251 21.3072 4.18498 20.203 4.4504C18.0371 4.96002 16.4552 6.24468 15.3298 8.15575C13.716 10.9056 12.1553 13.6872 10.6689 16.5114C10.2336 17.3395 10.2336 17.3395 11.1998 17.3395C12.1022 17.3395 13.0047 17.3076 13.9071 17.3076C21.9124 17.3076 29.907 17.3076 37.9122 17.3076C37.4557 18.3587 36.755 19.3249 36.5745 20.4503C36.3197 22.0322 35.4066 22.5525 33.9521 22.8285C31.404 23.3063 31.4252 23.3912 31.2447 25.9181C29.2275 25.9181 27.2103 25.8862 25.193 25.9181C23.696 25.9499 22.3795 26.4701 21.4028 27.6699C20.426 28.7634 20.1818 30.0481 20.6914 31.3858C21.1479 32.5749 22.2096 33.1164 23.4306 33.127C27.8261 33.1589 32.2321 33.127 36.6276 33.127C36.8293 33.6048 37.0416 34.0719 37.2328 34.5497C37.53 35.3141 38.3369 35.9936 38.1883 36.7899C38.0396 37.5649 37.392 38.2551 36.9567 38.977C36.9249 39.0195 36.8824 39.062 36.8505 39.0938C35.757 39.0938 34.6634 39.0832 33.5699 39.0832C30.183 39.0832 26.7856 39.062 23.3988 39.0832C21.0418 39.1044 19.4704 40.4103 19.4386 42.3214C17.7823 42.3426 16.1261 42.3532 14.4698 42.3745C11.8474 42.3532 9.23563 42.3426 6.61322 42.3214C4.64907 41.6313 3.98019 40.113 3.98019 38.1701C3.98019 35.2929 3.96958 32.4157 3.99081 29.5385C3.99081 28.7528 4.05451 27.9565 4.38364 27.224C5.5409 24.5697 6.71939 21.9261 7.86603 19.2718C9.76648 14.8763 11.7306 10.5127 14.1725 6.39332C15.4041 4.30177 17.1028 2.66674 19.4067 1.75367C20.2773 1.41393 21.1798 1.14851 22.061 0.851228ZM15.1387 36.7581C15.2661 35.8025 14.576 35.4628 13.8965 35.1549C12.8985 34.7196 11.8156 34.6665 10.7539 34.7833C9.27809 34.9425 8.0359 35.5796 7.28209 36.9279C6.39026 38.2869 6.6663 39.115 8.20577 39.2318C10.6477 39.4123 12.8773 38.6479 14.8839 37.2358C15.0431 37.1297 15.1599 36.9704 15.1387 36.7474V36.7581ZM7.61122 25.5571C7.21839 25.2598 6.95296 25.3766 6.82556 25.8119C6.71939 26.1729 6.62384 26.5445 6.5389 26.9161C6.1036 28.6997 6.59198 29.719 8.24824 30.494C8.58799 30.6533 8.94897 30.8125 9.30995 30.9187C11.1892 31.4495 13.0896 31.9485 14.9688 32.4688C16.0411 32.766 16.0411 32.766 16.2747 31.6513C16.5401 30.6745 16.8056 29.7083 17.0816 28.7316C17.1878 28.3494 17.1984 28.0415 16.71 27.9141C13.6735 27.1284 10.6477 26.3321 7.61122 25.5358V25.5571Z" fill="#2A77B7"/>
<path d="M36.8399 39.0944C36.8399 39.0944 36.9249 39.0201 36.9461 38.9776C37.3814 38.2556 38.029 37.5655 38.1777 36.7905C38.3263 35.9942 37.5194 35.3147 37.2221 34.5503C37.031 34.0725 36.8187 33.5948 36.617 33.1276C36.5214 32.8622 36.4365 32.5861 36.3409 32.3207C36.2772 31.259 35.7039 30.7812 34.6634 30.6538C33.8035 30.5477 32.9859 30.1973 32.126 30.0381C31.5951 29.9425 31.3722 29.6771 31.3509 29.1887C31.3085 28.0951 31.2766 27.0016 31.2341 25.908C31.404 23.3812 31.3934 23.2962 33.9415 22.8185C35.396 22.5424 36.3091 22.0222 36.5639 20.4402C36.7444 19.3148 37.4451 18.3487 37.9016 17.2976C37.9123 17.2658 37.9229 17.2339 37.9229 17.2021C38.3476 16.8729 38.3263 16.5438 38.029 16.0873C37.392 15.1105 36.8399 14.07 36.2135 13.0826C35.9906 12.7217 36.0012 12.4456 36.256 12.1271C37.392 10.7469 38.6342 9.48347 40.025 8.36868C40.3011 8.14572 40.5559 8.02893 40.9063 8.29436C41.2885 8.59163 41.7132 8.82521 42.1272 9.09064C41.3203 10.1948 40.1843 11.0017 39.3562 12.0953C39.0377 12.5093 39.0377 12.7535 39.3031 13.157C39.887 14.0488 40.4073 14.9725 40.97 15.8749C41.246 16.3208 41.3309 16.7137 41.0443 17.2339C40.2374 18.6884 39.5473 20.2067 39.1651 21.8417C39.0695 22.2345 38.7722 22.3513 38.4537 22.4363C37.4026 22.7229 36.3622 23.0414 35.2898 23.2431C34.5785 23.3812 34.4299 23.7421 34.3662 24.4216C34.2281 25.9186 34.2281 27.405 34.3662 28.902C34.4299 29.5497 34.5785 29.8894 35.2474 30.0274C36.2878 30.2398 37.2965 30.5901 38.3369 30.7919C38.8996 30.898 39.1332 31.1953 39.25 31.6837C39.6322 33.2975 40.3011 34.7839 41.1504 36.1853C41.4477 36.6843 41.1717 37.0347 40.9593 37.3957C40.4285 38.3193 39.887 39.2324 39.3031 40.1242C39.0483 40.5171 39.027 40.7613 39.3456 41.1859C40.1843 42.2795 41.2991 43.0864 42.1272 44.1906C42.1166 44.2118 42.106 44.2437 42.0847 44.2543C40.0463 45.4328 40.8319 45.5177 39.0589 44.0525C38.4113 43.5217 37.8273 42.9059 37.2115 42.3326C36.9992 42.0565 36.8081 41.738 36.5533 41.4938C36.0224 40.9948 35.9056 40.4746 36.3622 39.8694C36.5957 39.6571 36.7338 39.3917 36.8399 39.0944Z" fill="#EC9F22"/>
<path d="M22.061 0.850461C21.1798 1.14774 20.2773 1.41316 19.4067 1.75291C17.1028 2.66597 15.4041 4.31161 14.1725 6.39255C11.7306 10.512 9.76644 14.8756 7.86599 19.271C6.71935 21.9253 5.55148 24.5795 4.3836 27.2232C4.05448 27.9664 4.00139 28.7627 3.99077 29.5377C3.95892 32.4149 3.99077 35.2921 3.98016 38.1694C3.98016 40.1123 4.63841 41.6305 6.61318 42.3206C6.33714 42.3418 6.0611 42.3525 5.78505 42.3737C5.41346 42.3206 5.03124 42.2675 4.65965 42.2038C3.07771 41.588 2.31328 40.4414 2.3239 38.7321C2.34513 35.5788 2.34513 32.4255 2.3239 29.2829C2.3239 28.3274 2.52562 27.4568 2.89722 26.5862C3.55547 25.0361 4.34114 23.5391 4.86137 21.9253C5.84876 20.131 6.50701 18.1775 7.43069 16.3513C7.66427 15.8842 7.39884 15.8523 7.03786 15.8523C5.64703 15.8523 4.24558 15.8523 2.85475 15.8523C1.73996 15.8523 1.10294 16.5849 0.996768 17.7103C0.901215 18.7083 1.44268 19.5577 1.49577 20.5132C0.359746 19.4515 0.0518514 18.1031 0.221724 16.6274C0.327894 15.7355 1.17726 15.1198 2.27081 15.0879C3.33252 15.0561 4.40484 15.0879 5.47716 15.0879C6.29467 15.0879 7.28206 15.3321 7.88723 14.9605C8.47116 14.5889 8.67289 13.5909 9.03387 12.8583C10.0637 10.7243 11.136 8.61152 12.3358 6.56243C14.5123 2.83585 17.7292 0.892929 22.0716 0.839844L22.061 0.850461Z" fill="#316A9A"/>
<path d="M36.3728 39.87C35.9163 40.4751 36.0331 40.9954 36.5639 41.4944C36.8188 41.7386 36.9993 42.0465 37.2222 42.3331C31.5102 42.3331 25.7983 42.3331 20.0969 42.3331C20.2031 40.9529 21.7744 39.7213 23.4625 39.7213C27.5076 39.7213 31.5633 39.7213 35.6084 39.7213C35.8738 39.7213 36.1605 39.6364 36.3835 39.8806L36.3728 39.87Z" fill="#405263"/>
<path d="M5.78503 42.3744C6.06108 42.3531 6.33712 42.3425 6.61316 42.3213C9.23557 42.3425 11.8474 42.3531 14.4698 42.3744C14.4698 43.8395 14.4698 45.3153 14.4592 46.7805C11.996 46.7805 9.53285 46.7805 7.0697 46.7805C6.11416 46.7805 5.79565 46.4513 5.79565 45.4958C5.79565 44.4553 5.79565 43.4148 5.79565 42.3744H5.78503Z" fill="#405263"/>
<path d="M1.49583 20.5251C1.43212 19.5802 0.901271 18.7309 0.996825 17.7222C1.103 16.6075 1.74002 15.8749 2.85481 15.8643C4.24564 15.8643 5.64709 15.8643 7.03792 15.8643C7.38828 15.8643 7.66433 15.8961 7.43075 16.3633C6.50707 18.1894 5.84881 20.1323 4.86143 21.9372C3.7254 21.9372 2.69555 21.6081 1.83557 20.8437C1.76125 20.7799 1.69755 20.7162 1.62323 20.6525C1.58076 20.6101 1.53829 20.5676 1.49583 20.5251Z" fill="#2A77B7"/>
<path d="M46.2255 43.6911C47.3721 42.7249 47.4783 42.7461 48.7205 43.4362C49.7928 44.0308 50.9076 44.5298 52.1073 44.8271C52.9036 45.0182 53.392 45.3792 53.5194 46.2604C53.6362 47.0885 53.9547 47.8848 54.1245 48.7129C54.2413 49.3181 54.4537 49.7852 55.1225 49.8914C54.029 49.9233 52.946 49.9551 51.8631 49.7852C51.4172 49.7215 51.2792 49.541 51.1836 49.1482C50.9288 48.0653 50.6103 46.993 50.3873 45.91C50.2706 45.3686 50.037 45.1031 49.4849 44.9545C48.3595 44.6678 47.2447 44.3175 46.2467 43.6911H46.2255Z" fill="#EC9F22"/>
<path d="M48.5931 8.48452C49.8777 8.46329 50.4723 7.77318 50.5466 6.53099C50.5678 6.18063 50.6952 5.84088 50.7802 5.50113C50.8545 5.29941 50.9394 5.09769 50.9925 4.88535C51.3641 3.43081 51.3641 3.42019 52.8399 3.38834C53.5937 3.36711 54.3581 3.38834 55.1119 3.38834C54.4749 3.49451 54.2307 3.88734 54.1139 4.50313C53.9228 5.5436 53.5831 6.55222 53.3601 7.59269C53.2752 7.98552 53.1053 8.1554 52.7549 8.24033C51.0668 8.69687 49.4637 9.35512 47.9454 10.2257C47.1704 10.6716 46.7457 9.89659 46.2148 9.55684C46.9474 9.06846 47.8286 8.90921 48.5931 8.48452Z" fill="#EC9F22"/>
<path d="M5.78503 42.3749C5.78503 43.4154 5.78503 44.4559 5.78503 45.4964C5.78503 46.4413 6.10354 46.7704 7.05907 46.781C9.52223 46.7916 11.9854 46.781 14.4485 46.781C14.4485 47.7472 14.1406 48.0869 13.2276 48.0869C10.7963 48.0869 8.36497 48.0869 5.93367 48.0869C5.03122 48.0869 4.65962 47.7153 4.64901 46.7916C4.63839 45.2628 4.64901 43.7339 4.64901 42.2051C5.0206 42.2582 5.40282 42.3112 5.77441 42.3749H5.78503Z" fill="#384555"/>
<path d="M36.3728 39.8693C36.1498 39.6251 35.8632 39.7101 35.5977 39.7101C31.5526 39.7101 27.4969 39.7101 23.4518 39.7101C21.7637 39.7101 20.1924 40.9416 20.0862 42.3218C19.8633 42.3218 19.6403 42.3218 19.428 42.3218C19.4598 40.4108 21.0312 39.1049 23.3881 39.0837C26.775 39.0624 30.1724 39.0837 33.5593 39.0837C34.6528 39.0837 35.7464 39.0837 36.8399 39.0943C36.7444 39.3915 36.5957 39.657 36.3728 39.8693Z" fill="#5F7EBF"/>
<path d="M22.5494 0.798302L22.4857 0.840772L22.4114 0.798302C22.4538 0.766451 22.4963 0.766451 22.5494 0.798302Z" fill="#E83445"/>
<path d="M48.5931 8.4837C47.8287 8.90839 46.9474 9.06764 46.2149 9.55602C44.9939 10.6071 43.8367 10.3735 42.7006 9.40739C42.5414 9.26936 42.329 9.19504 42.1379 9.08887C41.7345 8.82345 41.2992 8.58987 40.917 8.2926C40.5772 8.02717 40.3118 8.14396 40.0357 8.36692C38.6449 9.4817 37.3921 10.7451 36.2667 12.1253C36.0013 12.4439 35.9907 12.7199 36.2242 13.0809C36.8506 14.0683 37.4027 15.1087 38.0397 16.0855C38.337 16.5314 38.3583 16.8605 37.9336 17.2003C37.5514 17.2003 37.1691 17.1791 36.7869 17.1791C28.8985 17.1791 21.01 17.1791 13.1216 17.1791C12.1023 17.1791 12.0811 17.1684 12.5695 16.2872C14.0983 13.5374 15.6166 10.7982 17.1773 8.06964C18.2921 6.12672 20.012 4.94823 22.1885 4.39614C22.6344 4.27936 23.1228 4.51293 23.5475 4.21565C28.6543 3.87591 33.7611 3.97146 38.8679 4.14133C40.3436 4.19442 41.83 4.1201 43.2846 4.39614C45.7159 4.87391 47.4783 6.27536 48.6037 8.47308L48.5931 8.4837Z" fill="#77A1D4"/>
<path d="M58.9128 13.0615C63.4357 16.0555 63.3082 22.946 58.658 25.8444C58.1271 26.1736 57.9254 26.5027 57.9254 27.1291C57.9573 31.0362 57.9466 34.9539 57.936 38.8609C57.936 40.4535 57.3627 41.0268 55.7595 41.0268C55.0482 41.0268 54.3368 41.0162 53.6255 41.0056C52.6912 40.6021 52.447 39.9014 52.4576 38.9034C52.5107 34.9963 52.4576 31.0786 52.4895 27.1716C52.4895 26.5876 52.2984 26.2054 51.81 25.8869C51.2579 25.5365 50.674 25.1862 50.2493 24.7084C48.3595 22.6169 47.7437 20.1431 48.4019 17.4145C48.8478 15.5884 49.8352 14.0808 51.4702 13.0721C51.4702 14.962 51.5021 16.8518 51.4915 18.7416C51.4915 19.2088 51.6083 19.4955 52.0436 19.7078C52.6594 20.0051 53.2645 20.3342 53.8166 20.7376C54.305 21.0986 54.7403 21.088 55.2181 20.7907C55.6958 21.0668 56.1524 21.0031 56.5983 20.727C57.1079 20.4085 57.5963 20.0582 58.1377 19.814C58.7535 19.5273 58.9234 19.1026 58.9128 18.455C58.8809 16.6607 58.9128 14.8664 58.9128 13.0615Z" fill="#405263"/>
<path d="M51.4808 13.0717C49.8458 14.0803 48.8478 15.5879 48.4125 17.414C47.7542 20.1426 48.37 22.6164 50.2599 24.7079C50.6845 25.1857 51.2685 25.5361 51.8206 25.8864C52.3089 26.2049 52.5 26.5765 52.5 27.1711C52.4788 31.0782 52.5213 34.9959 52.4682 38.9029C52.4576 39.9009 52.7018 40.6016 53.6361 41.0051C51.6613 41.1325 51.0455 40.5592 51.0455 38.6056C51.0455 34.8047 51.0349 31.0038 51.0455 27.2029C51.0455 26.5765 50.9075 26.2049 50.3236 25.8334C47.871 24.262 46.6607 21.9263 46.7987 19.0491C46.9473 15.9383 48.5824 13.6981 51.3746 12.2754C51.587 12.5727 51.4914 12.8381 51.4702 13.0929L51.4808 13.0717Z" fill="#3A4854"/>
<path d="M58.9128 13.0602C58.9128 14.8545 58.8809 16.6488 58.9128 18.4537C58.9234 19.1013 58.7641 19.526 58.1377 19.8126C57.5962 20.0568 57.1079 20.4072 56.5982 20.7257C56.1417 21.0017 55.6852 21.0654 55.218 20.7894C55.7276 20.3329 56.354 20.0462 56.9486 19.7383C57.437 19.4835 57.575 19.165 57.5644 18.6341C57.5325 16.5426 57.5538 14.451 57.5538 12.2852C58.1059 12.455 58.5518 12.678 58.9128 13.0602Z" fill="#384555"/>
<path d="M31.2342 25.9082C31.2766 27.0018 31.3085 28.0953 31.3509 29.1889C31.3722 29.6773 31.5951 29.9427 32.126 30.0382C32.9754 30.1975 33.8035 30.5372 34.6635 30.654C35.7039 30.792 36.2879 31.2592 36.341 32.3209C32.5082 32.3209 28.6755 32.3209 24.8427 32.3209C24.1526 32.3209 23.4625 32.2253 22.8467 31.9387C22.0504 31.5671 21.3072 31.0362 21.2435 30.0382C21.1904 29.2526 21.1586 28.4563 21.3816 27.6812C22.3583 26.4815 23.6748 25.9613 25.1718 25.9294C27.1891 25.887 29.2063 25.9294 31.2235 25.9294L31.2342 25.9082Z" fill="#405263"/>
<path d="M7.6112 25.5566C10.6477 26.3529 13.6735 27.1492 16.71 27.9349C17.1984 28.0623 17.1878 28.3702 17.0816 28.7524C16.8056 29.7185 16.5401 30.6953 16.2747 31.6721C15.712 32.0543 15.2236 31.619 14.7246 31.5022C12.7498 31.0244 10.7645 30.5891 8.88524 29.7716C7.19713 29.039 6.64505 27.3828 7.6112 25.5779V25.5566Z" fill="#FCB644"/>
<path d="M23.5368 4.21817C23.1121 4.51545 22.6238 4.28188 22.1778 4.39866C20.012 4.95075 18.292 6.12924 17.1666 8.07216C15.6059 10.7901 14.077 13.5399 12.5588 16.2897C12.0704 17.171 12.0917 17.1816 13.1109 17.1816C20.9993 17.1816 28.8878 17.1816 36.7763 17.1816C37.1585 17.1816 37.5407 17.1922 37.9229 17.2028C37.9229 17.2347 37.9123 17.2665 37.9017 17.2984C29.8964 17.2984 21.9018 17.2984 13.8965 17.2984C12.9941 17.2984 12.0917 17.3302 11.1892 17.3302C10.2231 17.3302 10.2231 17.3302 10.6584 16.5021C12.1447 13.678 13.7054 10.8963 15.3192 8.14648C16.434 6.23541 18.0266 4.95075 20.1925 4.44113C21.286 4.17571 22.4114 4.13324 23.5368 4.21817Z" fill="#5F7EBF"/>
<path d="M7.27154 36.9384C8.03597 35.5795 9.26754 34.9531 10.7433 34.7938C11.805 34.677 12.888 34.7301 13.886 35.1654C14.5654 35.4627 15.2556 35.813 15.1281 36.7686C13.3551 38.0001 11.3272 38.531 9.22507 38.7009C7.70684 38.8283 7.25031 38.308 7.26092 36.9491L7.27154 36.9384Z" fill="#FCB644"/>
<path d="M21.3922 27.6708C21.1692 28.4458 21.2011 29.2421 21.2541 30.0278C21.3178 31.0258 22.061 31.5566 22.8573 31.9282C23.4625 32.2149 24.1632 32.3104 24.8533 32.3104C28.6861 32.3104 32.5188 32.3104 36.3516 32.3104C36.4471 32.5758 36.5321 32.8519 36.6276 33.1173C32.2322 33.1173 27.8261 33.1492 23.4306 33.1173C22.2097 33.1173 21.148 32.5652 20.6914 31.3761C20.1712 30.0384 20.426 28.7537 21.4028 27.6602L21.3922 27.6708Z" fill="#384555"/>
<path d="M7.61131 25.557C6.64516 27.3619 7.19724 29.0182 8.88535 29.7508C10.7646 30.5683 12.75 31.0036 14.7247 31.4813C15.2237 31.6088 15.7121 32.0334 16.2748 31.6512C16.0412 32.7766 16.0519 32.766 14.9689 32.4687C13.0791 31.9485 11.1892 31.4389 9.31003 30.9186C8.94905 30.8125 8.58807 30.6532 8.24833 30.494C6.59207 29.7083 6.10369 28.6891 6.53898 26.916C6.62392 26.5444 6.71948 26.1728 6.82565 25.8118C6.96367 25.3659 7.21848 25.2491 7.61131 25.557Z" fill="#ED9D22"/>
<path d="M7.27157 36.9393C7.26096 38.3089 7.71749 38.8185 9.23572 38.6911C11.3379 38.5212 13.3658 37.9904 15.1388 36.7588C15.16 36.9817 15.0326 37.141 14.884 37.2472C12.8774 38.6486 10.6478 39.413 8.20587 39.2432C6.6664 39.137 6.39036 38.2983 7.28219 36.9393H7.27157Z" fill="#ED9D22"/>
</svg>
