<svg width="59" height="72" viewBox="0 0 59 72" fill="none" xmlns="http://www.w3.org/2000/svg">
<path d="M44.256 0.330078H15.4328C14.4131 0.330078 13.5865 1.24659 13.5865 2.37716V69.6229C13.5865 70.7535 14.4131 71.67 15.4328 71.67H44.256C45.2756 71.67 46.1022 70.7535 46.1022 69.6229V2.37716C46.1022 1.24659 45.2756 0.330078 44.256 0.330078Z" fill="#AEB4C1"/>
<path d="M43.4045 0.330078H15.4148C14.4051 0.330078 13.5865 1.23769 13.5865 2.35729V69.6428C13.5865 70.7624 14.4051 71.67 15.4148 71.67H43.4045C44.4143 71.67 45.2329 70.7624 45.2329 69.6428V2.35729C45.2329 1.23769 44.4143 0.330078 43.4045 0.330078Z" fill="#E5E5E5"/>
<path d="M46.1023 28.2832H13.5866V29.734H46.1023V28.2832Z" fill="#AEB4C1"/>
<path d="M45.2419 28.7812H13.5866V29.7352H45.2419V28.7812Z" fill="#C2C1C0"/>
<path d="M19.708 15.5654H18.5877C18.2561 15.5654 17.9872 15.8635 17.9872 16.2312V22.611C17.9872 22.9787 18.2561 23.2768 18.5877 23.2768H19.708C20.0397 23.2768 20.3085 22.9787 20.3085 22.611V16.2312C20.3085 15.8635 20.0397 15.5654 19.708 15.5654Z" fill="#AEB4C1"/>
<path d="M18.5341 15.5654H19.511C19.7261 15.5654 19.9053 15.7642 19.9053 16.0027V22.8296C19.9053 23.078 19.7261 23.2768 19.502 23.2768H18.543C18.2383 23.2768 17.9963 23.0085 17.9963 22.6706V16.1716C17.9963 15.8337 18.2383 15.5654 18.543 15.5654H18.5341Z" fill="#C2C1C0"/>
<path d="M19.5915 33.8486H18.7042C18.3082 33.8486 17.9872 34.2046 17.9872 34.6436V43.9151C17.9872 44.3542 18.3082 44.7101 18.7042 44.7101H19.5915C19.9874 44.7101 20.3085 44.3542 20.3085 43.9151V34.6436C20.3085 34.2046 19.9874 33.8486 19.5915 33.8486Z" fill="#AEB4C1"/>
<path d="M18.6413 33.8486H19.4389C19.6988 33.8486 19.905 34.0772 19.905 34.3654V44.1735C19.905 44.4716 19.6899 44.7101 19.421 44.7101H18.6413C18.2828 44.7101 17.996 44.3921 17.996 43.9946V34.5741C17.996 34.1766 18.2828 33.8586 18.6413 33.8586V33.8486Z" fill="#C2C1C0"/>
<path opacity="0.5" d="M39.4164 36.1338H39.4075C38.4967 36.1338 37.7584 36.9524 37.7584 37.9623V61.6826C37.7584 62.6924 38.4967 63.511 39.4075 63.511H39.4164C40.3272 63.511 41.0655 62.6924 41.0655 61.6826V37.9623C41.0655 36.9524 40.3272 36.1338 39.4164 36.1338Z" fill="white"/>
<path opacity="0.5" d="M39.1833 4.77148H38.7083C37.9262 4.77148 37.2922 5.47444 37.2922 6.34158V23.3145C37.2922 24.1816 37.9262 24.8846 38.7083 24.8846H39.1833C39.9654 24.8846 40.5994 24.1816 40.5994 23.3145V6.34158C40.5994 5.47444 39.9654 4.77148 39.1833 4.77148Z" fill="white"/>
<path d="M27.8907 31.7822H2.15948C1.04082 31.7822 0.133972 32.7877 0.133972 34.0281V69.4347C0.133972 70.675 1.04082 71.6805 2.15948 71.6805H27.8907C29.0093 71.6805 29.9162 70.675 29.9162 69.4347V34.0281C29.9162 32.7877 29.0093 31.7822 27.8907 31.7822Z" fill="#A3A3A3"/>
<path d="M1.34389 31.7824H27.81C28.4822 31.7824 29.0289 32.3886 29.0289 33.1339V69.8423C29.0289 70.8559 28.285 71.6807 27.3708 71.6807H1.34389C0.671709 71.6807 0.125 71.0745 0.125 70.3292V33.1239C0.125 32.3786 0.671709 31.7725 1.34389 31.7725V31.7824Z" fill="#E5E5E5"/>
<path d="M15.0206 65.8371C20.1189 65.8371 24.2519 61.2545 24.2519 55.6016C24.2519 49.9488 20.1189 45.3662 15.0206 45.3662C9.92225 45.3662 5.78925 49.9488 5.78925 55.6016C5.78925 61.2545 9.92225 65.8371 15.0206 65.8371Z" fill="#A3A3A3"/>
<path d="M15.0474 65.4905C19.8834 65.4905 23.8037 61.1082 23.8037 55.7023C23.8037 50.2964 19.8834 45.9141 15.0474 45.9141C10.2114 45.9141 6.29108 50.2964 6.29108 55.7023C6.29108 61.1082 10.2114 65.4905 15.0474 65.4905Z" fill="#C2C1C0"/>
<path d="M22.6924 56.247C22.5311 60.8877 19.1612 64.5943 15.0295 64.5943C10.8978 64.5943 7.65345 61.0169 7.37561 56.4954C7.68033 56.9824 8.18223 57.3004 8.75583 57.3004C9.4549 57.3004 10.0554 56.8234 10.3153 56.1377C10.5662 56.8234 11.1667 57.3004 11.8658 57.3004C12.5649 57.3004 13.1564 56.8234 13.4163 56.1476C13.6762 56.8333 14.2767 57.3004 14.9758 57.3004C15.6748 57.3004 16.2664 56.8234 16.5263 56.1476C16.7862 56.8333 17.3867 57.3004 18.0768 57.3004C18.7669 57.3004 19.3763 56.8234 19.6362 56.1476C19.8961 56.8333 20.4877 57.3004 21.1867 57.3004C21.8858 57.3004 22.4235 56.8731 22.6924 56.2371V56.247Z" fill="#BAE4EE"/>
<path d="M29.0288 40.3389H0.133911V40.9749H29.0288V40.3389Z" fill="#707071"/>
<path d="M29.0467 40.5576H0.133911V40.975H29.0467V40.5576Z" fill="#A3A3A3"/>
<path d="M4.16715 35.2588H2.45533C2.42563 35.2588 2.40155 35.2855 2.40155 35.3184V37.0972C2.40155 37.1301 2.42563 37.1568 2.45533 37.1568H4.16715C4.19685 37.1568 4.22093 37.1301 4.22093 37.0972V35.3184C4.22093 35.2855 4.19685 35.2588 4.16715 35.2588Z" fill="#A3A3A3"/>
<path d="M4.16715 35.4189H2.45533C2.42563 35.4189 2.40155 35.4456 2.40155 35.4786V37.0983C2.40155 37.1313 2.42563 37.158 2.45533 37.158H4.16715C4.19685 37.158 4.22093 37.1313 4.22093 37.0983V35.4786C4.22093 35.4456 4.19685 35.4189 4.16715 35.4189Z" fill="#C2C1C0"/>
<path d="M11.8659 35.2588H8.38846C8.34391 35.2588 8.3078 35.2988 8.3078 35.3482V37.0674C8.3078 37.1168 8.34391 37.1568 8.38846 37.1568H11.8659C11.9104 37.1568 11.9466 37.1168 11.9466 37.0674V35.3482C11.9466 35.2988 11.9104 35.2588 11.8659 35.2588Z" fill="#A3A3A3"/>
<path d="M11.8659 35.4189H8.38846C8.34391 35.4189 8.3078 35.459 8.3078 35.5084V37.0685C8.3078 37.1179 8.34391 37.158 8.38846 37.158H11.8659C11.9104 37.158 11.9466 37.1179 11.9466 37.0685V35.5084C11.9466 35.459 11.9104 35.4189 11.8659 35.4189Z" fill="#C2C1C0"/>
<path d="M26.842 36.1837C26.842 35.5251 26.3605 34.9912 25.7665 34.9912C25.1726 34.9912 24.691 35.5251 24.691 36.1837C24.691 36.8423 25.1726 37.3762 25.7665 37.3762C26.3605 37.3762 26.842 36.8423 26.842 36.1837Z" fill="#AEADAE"/>
<path d="M25.8202 35.0801H25.8113C25.242 35.0801 24.7806 35.5917 24.7806 36.2229V36.2427C24.7806 36.8739 25.242 37.3855 25.8113 37.3855H25.8202C26.3895 37.3855 26.8509 36.8739 26.8509 36.2427V36.2229C26.8509 35.5917 26.3895 35.0801 25.8202 35.0801Z" fill="#C2C1C0"/>
<path d="M22.4055 35.0732H22.3965C21.8273 35.0732 21.3658 35.5849 21.3658 36.216V36.226C21.3658 36.8571 21.8273 37.3688 22.3965 37.3688H22.4055C22.9747 37.3688 23.4362 36.8571 23.4362 36.226V36.216C23.4362 35.5849 22.9747 35.0732 22.4055 35.0732Z" fill="#AEADAE"/>
<path d="M22.4503 35.1621H22.4323C21.8879 35.1621 21.4465 35.6515 21.4465 36.2552V36.285C21.4465 36.8887 21.8879 37.3781 22.4323 37.3781H22.4503C22.9947 37.3781 23.4361 36.8887 23.4361 36.285V36.2552C23.4361 35.6515 22.9947 35.1621 22.4503 35.1621Z" fill="#C2C1C0"/>
<path d="M7.12461 35.2812H5.41278C5.38308 35.2812 5.35901 35.3079 5.35901 35.3409V37.1196C5.35901 37.1526 5.38308 37.1793 5.41278 37.1793H7.12461C7.15431 37.1793 7.17838 37.1526 7.17838 37.1196V35.3409C7.17838 35.3079 7.15431 35.2812 7.12461 35.2812Z" fill="#A3A3A3"/>
<path d="M7.12467 35.4404H5.41284C5.38315 35.4404 5.35907 35.4671 5.35907 35.5001V37.1198C5.35907 37.1528 5.38315 37.1795 5.41284 37.1795H7.12467C7.15437 37.1795 7.17845 37.1528 7.17845 37.1198V35.5001C7.17845 35.4671 7.15437 35.4404 7.12467 35.4404Z" fill="#C2C1C0"/>
<path d="M57.431 53.2158H33.2145C32.368 53.2158 31.6819 53.9766 31.6819 54.9151V69.9801C31.6819 70.9185 32.368 71.6793 33.2145 71.6793H57.431C58.2774 71.6793 58.9635 70.9185 58.9635 69.9801V54.9151C58.9635 53.9766 58.2774 53.2158 57.431 53.2158Z" fill="#949CB2"/>
<path d="M57.431 53.2158H33.2145C32.368 53.2158 31.6819 53.9766 31.6819 54.9151V69.1553C31.6819 70.0937 32.368 70.8545 33.2145 70.8545H57.431C58.2774 70.8545 58.9635 70.0937 58.9635 69.1553V54.9151C58.9635 53.9766 58.2774 53.2158 57.431 53.2158Z" fill="#ADB8D1"/>
<path d="M52.0893 54.4287H34.7112C33.8647 54.4287 33.1786 55.1895 33.1786 56.128V67.6553C33.1786 68.5937 33.8647 69.3545 34.7112 69.3545H52.0893C52.9358 69.3545 53.6219 68.5937 53.6219 67.6553V56.128C53.6219 55.1895 52.9358 54.4287 52.0893 54.4287Z" fill="#707687"/>
<path opacity="0.6" d="M50.2699 67.6548V56.1276C50.2699 55.8586 50.0733 55.6406 49.8307 55.6406H34.7111C34.4686 55.6406 34.2719 55.8586 34.2719 56.1276V67.6548C34.2719 67.9237 34.4686 68.1418 34.7111 68.1418H49.8307C50.0733 68.1418 50.2699 67.9237 50.2699 67.6548Z" fill="#383838"/>
<path opacity="0.6" d="M50.261 67.6652V57.0621C50.261 56.7932 50.0644 56.5752 49.8218 56.5752H34.7022C34.4596 56.5752 34.263 56.7932 34.263 57.0621V67.6652C34.263 67.9341 34.4596 68.1522 34.7022 68.1522H49.8218C50.0644 68.1522 50.261 67.9341 50.261 67.6652Z" fill="#565656"/>
<path d="M52.4388 67.4957V56.3062C52.4388 55.944 52.174 55.6504 51.8473 55.6504H51.8384C51.5117 55.6504 51.2468 55.944 51.2468 56.3062V67.4957C51.2468 67.8579 51.5117 68.1515 51.8384 68.1515H51.8473C52.174 68.1515 52.4388 67.8579 52.4388 67.4957Z" fill="#ADB8D1"/>
<path opacity="0.31" d="M43.002 63.5069L38.0652 58.0331C37.8342 57.777 37.4596 57.777 37.2286 58.0331L37.2223 58.0401C36.9913 58.2963 36.9913 58.7115 37.2223 58.9677L42.1591 64.4415C42.3901 64.6976 42.7647 64.6976 42.9957 64.4415L43.002 64.4344C43.233 64.1783 43.233 63.7631 43.002 63.5069Z" fill="white"/>
<path opacity="0.31" d="M48.4976 66.0038L44.9614 62.0829C44.7304 61.8268 44.3558 61.8268 44.1248 62.0829L44.1185 62.0899C43.8875 62.3461 43.8875 62.7613 44.1185 63.0175L47.6548 66.9384C47.8858 67.1945 48.2603 67.1945 48.4913 66.9384L48.4976 66.9314C48.7286 66.6752 48.7286 66.26 48.4976 66.0038Z" fill="white"/>
<path opacity="0.64" d="M43.6729 60.5492L41.9365 58.6239C41.7055 58.3678 41.3309 58.3678 41.0999 58.6239L41.0936 58.6309C40.8626 58.8871 40.8626 59.3023 41.0936 59.5585L42.83 61.4838C43.061 61.7399 43.4356 61.7399 43.6666 61.4838L43.6729 61.4768C43.9039 61.2206 43.9039 60.8054 43.6729 60.5492Z" fill="white"/>
<path d="M57.2068 56.415H55.3068C54.9801 56.415 54.7153 56.7087 54.7153 57.0709V57.0808C54.7153 57.4431 54.9801 57.7367 55.3068 57.7367H57.2068C57.5335 57.7367 57.7983 57.4431 57.7983 57.0808V57.0709C57.7983 56.7087 57.5335 56.415 57.2068 56.415Z" fill="#949CB2"/>
<path d="M57.2068 58.6416H55.3068C54.9801 58.6416 54.7153 58.9352 54.7153 59.2975V59.3074C54.7153 59.6696 54.9801 59.9633 55.3068 59.9633H57.2068C57.5335 59.9633 57.7983 59.6696 57.7983 59.3074V59.2975C57.7983 58.9352 57.5335 58.6416 57.2068 58.6416Z" fill="#949CB2"/>
<path d="M57.2068 60.8672H55.3068C54.9801 60.8672 54.7153 61.1608 54.7153 61.5231V61.533C54.7153 61.8952 54.9801 62.1889 55.3068 62.1889H57.2068C57.5335 62.1889 57.7983 61.8952 57.7983 61.533V61.5231C57.7983 61.1608 57.5335 60.8672 57.2068 60.8672Z" fill="#949CB2"/>
<path d="M56.2031 66.0247C56.911 66.0247 57.4848 65.3885 57.4848 64.6037C57.4848 63.8188 56.911 63.1826 56.2031 63.1826C55.4953 63.1826 54.9215 63.8188 54.9215 64.6037C54.9215 65.3885 55.4953 66.0247 56.2031 66.0247Z" fill="#E5E5E5"/>
<path d="M56.2121 69.4544C56.9199 69.4544 57.4937 68.8182 57.4937 68.0333C57.4937 67.2485 56.9199 66.6123 56.2121 66.6123C55.5043 66.6123 54.9305 67.2485 54.9305 68.0333C54.9305 68.8182 55.5043 69.4544 56.2121 69.4544Z" fill="#E5E5E5"/>
<path d="M55.5578 63.9434L55.3867 64.2583C55.3459 64.3336 55.3677 64.4313 55.4356 64.4766L56.6409 65.2815C56.7088 65.3268 56.7969 65.3026 56.8378 65.2273L57.0089 64.9124C57.0497 64.8371 57.0278 64.7394 56.96 64.6941L55.7546 63.8892C55.6868 63.8439 55.5987 63.8681 55.5578 63.9434Z" fill="#707687"/>
<path d="M55.5703 67.3857L55.3992 67.7007C55.3584 67.7759 55.3803 67.8736 55.4481 67.9189L56.6535 68.7239C56.7213 68.7692 56.8094 68.7449 56.8503 68.6697L57.0214 68.3548C57.0622 68.2795 57.0404 68.1818 56.9725 68.1365L55.7671 67.3316C55.6993 67.2863 55.6112 67.3105 55.5703 67.3857Z" fill="#707687"/>
</svg>
