<svg width="37" height="38" viewBox="0 0 37 38" fill="none" xmlns="http://www.w3.org/2000/svg">
<path d="M15.0863 6.20637C15.0863 4.19796 16.7091 2.56348 18.7032 2.56348C20.6972 2.56348 22.3201 4.19796 22.3201 6.20637C22.3201 8.21478 20.6972 9.84927 18.7032 9.84927C16.7091 9.84927 15.0863 8.21761 15.0863 6.20637ZM17.1901 6.20637C17.1901 7.04769 17.8679 7.73038 18.7032 7.73038C19.5385 7.73038 20.2163 7.04769 20.2163 6.20637C20.2163 5.36505 19.5385 4.68236 18.7032 4.68236C17.8679 4.68236 17.1901 5.36788 17.1901 6.20637Z" fill="#E2A610"/>
<path d="M21.8138 4.35938C21.8138 4.35938 21.9741 5.00241 21.2344 5.35366C20.4947 5.70209 20.0054 5.44431 20.0054 5.44431C20.1376 5.67093 20.2163 5.92871 20.2163 6.20915C20.2163 7.05047 19.5385 7.73316 18.7032 7.73316C17.8679 7.73316 17.1901 7.05047 17.1901 6.20915C17.1901 6.12417 17.2097 5.80407 17.3447 5.53779C16.0904 6.13833 15.1369 5.62561 15.1369 5.62561C15.106 5.8154 15.0863 6.01086 15.0863 6.20915C15.0863 8.21756 16.7091 9.85204 18.7032 9.85204C20.6972 9.85204 22.3201 8.21756 22.3201 6.20632C22.3201 5.53213 22.1344 4.90043 21.8138 4.35938Z" fill="#9E740B"/>
<path d="M3.03198 28.5846C4.93604 26.7009 6.12291 26.0663 6.60666 23.3356C7.09041 20.6048 6.70229 14.8516 8.83417 11.084C10.7804 7.63375 14.3523 6.20605 17.837 6.20605C17.9214 6.20605 18.0057 6.21172 18.0901 6.21172C18.1745 6.20889 18.2589 6.20605 18.3432 6.20605C21.8279 6.20605 25.3998 7.63375 27.346 11.0812C29.4751 14.8516 29.0898 20.6048 29.5735 23.3328C30.0573 26.0635 31.2442 26.698 33.1482 28.5818C33.9695 29.3948 34.9623 30.6894 34.9651 31.5222C34.9679 32.355 34.546 32.6581 33.542 33.083C30.7014 34.2869 26.9045 35.454 18.0901 35.454C9.27573 35.454 5.47885 34.2869 2.63823 33.083C1.63416 32.6581 1.21229 32.3578 1.2151 31.5222C1.21791 30.6922 2.21073 29.3976 3.03198 28.5846Z" fill="#FFCA28"/>
<path d="M32.0682 31.5824C32.0682 30.3275 25.8104 29.3105 18.0901 29.3105C10.3697 29.3105 4.11194 30.3275 4.11194 31.5824C4.11194 32.8373 10.3697 34.3358 18.0901 34.3358C25.8104 34.3358 32.0682 32.8373 32.0682 31.5824Z" fill="#4E342E"/>
<path d="M26.4825 13.5688C26.5866 13.9683 26.6738 14.3677 26.7441 14.7586C27.1013 16.7585 27.0366 18.8094 27.1969 20.8348C27.4135 23.5457 27.8916 24.9734 28.98 26.2482C29.1235 26.4153 28.9772 26.6731 28.7607 26.6391C27.3066 26.4153 26.1394 26.1915 24.8091 25.3077C22.8235 23.9905 22.3341 21.5118 22.32 19.2853C22.2975 15.971 22.3594 12.7615 22.0979 11.5434C21.735 9.84663 21.3975 8.94299 20.8463 8.11866C20.0054 6.86093 23.2707 8.60589 23.7825 8.99398C25.2085 10.0789 26.0269 11.8239 26.4825 13.5688Z" fill="#E2A610"/>
<path d="M8.77791 17.9677C8.74416 15.8205 8.76104 13.5997 9.61041 11.6281C10.1195 10.4497 10.9829 9.38738 12.0854 8.72736C12.9517 8.20896 14.7123 7.63675 15.3451 8.81234C15.4717 9.04745 15.5223 9.32223 15.5307 9.59134C15.5532 10.529 15.0695 11.3958 14.5998 12.206C13.2104 14.6081 12.6563 17.2341 11.9223 19.8968C11.6213 20.9959 11.2388 22.0922 10.5835 23.0213C10.1335 23.6587 7.6276 25.9249 8.20135 23.8768C8.7526 21.8967 8.80885 20.03 8.77791 17.9677Z" fill="#FFF59D"/>
<path d="M20.6467 31.1399C20.6438 30.6527 20.3823 30.3723 19.7804 30.1626C18.5317 29.7292 16.9679 29.8085 16.0567 30.3014C15.1004 30.817 15.7642 33.6752 18.0901 33.6752C20.416 33.6752 20.6495 31.511 20.6467 31.1399Z" fill="#E2A610"/>
<path d="M9.44161 26.8825C6.97224 27.3187 5.18349 28.262 4.41005 29.0268C3.79692 29.6302 3.79692 30.1061 4.87692 29.6104C5.68974 29.2365 8.29411 28.4773 10.575 28.2478C14.4929 27.8512 16.9116 27.8427 17.3138 27.8512C18.256 27.8711 18.3347 27.1402 16.4307 26.8825C14.5266 26.6275 11.911 26.449 9.44161 26.8825Z" fill="#FFF59D"/>
<path d="M17.0944 33.1228C17.4207 33.3494 17.8538 33.4599 18.2194 33.3069C18.585 33.154 18.8213 32.6866 18.6413 32.3325C18.571 32.1937 18.45 32.0889 18.3291 31.9926C17.9944 31.7291 17.6232 31.5138 17.2294 31.3552C17.0747 31.2929 16.9116 31.2362 16.7429 31.2475C16.5769 31.256 16.4025 31.3439 16.3379 31.4997C16.0594 32.137 16.6163 32.7942 17.0944 33.1228Z" fill="#FFF59D"/>
</svg>
