<svg width="74" height="62" viewBox="0 0 74 62" fill="none" xmlns="http://www.w3.org/2000/svg">
<path d="M60.7023 26.4902H51.5276C50.181 26.4902 49.0894 27.5883 49.0894 28.9428V51.9053C49.0894 53.2598 50.181 54.3578 51.5276 54.3578H60.7023C62.0489 54.3578 63.1406 53.2598 63.1406 51.9053V28.9428C63.1406 27.5883 62.0489 26.4902 60.7023 26.4902Z" fill="#FBBE36"/>
<path d="M57.7537 29.1348H53.1607C51.9519 29.1348 50.9719 30.1204 50.9719 31.3363V41.6598C50.9719 42.8757 51.9519 43.8613 53.1607 43.8613H57.7537C58.9625 43.8613 59.9425 42.8757 59.9425 41.6598V31.3363C59.9425 30.1204 58.9625 29.1348 57.7537 29.1348Z" fill="#DEA735"/>
<path d="M58.1961 29.1348H53.6031C52.3943 29.1348 51.4143 30.1204 51.4143 31.3363V41.6598C51.4143 42.8757 52.3943 43.8613 53.6031 43.8613H58.1961C59.4049 43.8613 60.3849 42.8757 60.3849 41.6598V31.3363C60.3849 30.1204 59.4049 29.1348 58.1961 29.1348Z" fill="#78707B"/>
<path d="M59.6817 46.0186H58.9446C58.7379 46.0186 58.5703 46.1871 58.5703 46.395V51.4826C58.5703 51.6905 58.7379 51.859 58.9446 51.859H59.6817C59.8884 51.859 60.056 51.6905 60.056 51.4826V46.395C60.056 46.1871 59.8884 46.0186 59.6817 46.0186Z" fill="#DEA735"/>
<path d="M57.3115 46.0186H56.5743C56.3676 46.0186 56.2001 46.1871 56.2001 46.395V51.4826C56.2001 51.6905 56.3676 51.859 56.5743 51.859H57.3115C57.5182 51.859 57.6857 51.6905 57.6857 51.4826V46.395C57.6857 46.1871 57.5182 46.0186 57.3115 46.0186Z" fill="#DEA735"/>
<path d="M55.0092 46.0186H54.2721C54.0654 46.0186 53.8978 46.1871 53.8978 46.395V51.4826C53.8978 51.6905 54.0654 51.859 54.2721 51.859H55.0092C55.2159 51.859 55.3835 51.6905 55.3835 51.4826V46.395C55.3835 46.1871 55.2159 46.0186 55.0092 46.0186Z" fill="#DEA735"/>
<path d="M52.6505 46.0186H51.9133C51.7066 46.0186 51.5391 46.1871 51.5391 46.395V51.4826C51.5391 51.6905 51.7066 51.859 51.9133 51.859H52.6505C52.8571 51.859 53.0247 51.6905 53.0247 51.4826V46.395C53.0247 46.1871 52.8571 46.0186 52.6505 46.0186Z" fill="#DEA735"/>
<path d="M59.7951 45.9277H59.058C58.8513 45.9277 58.6837 46.0963 58.6837 46.3042V51.3917C58.6837 51.5996 58.8513 51.7682 59.058 51.7682H59.7951C60.0018 51.7682 60.1694 51.5996 60.1694 51.3917V46.3042C60.1694 46.0963 60.0018 45.9277 59.7951 45.9277Z" fill="#78707B"/>
<path d="M57.4362 45.9277H56.6991C56.4924 45.9277 56.3248 46.0963 56.3248 46.3042V51.3917C56.3248 51.5996 56.4924 51.7682 56.6991 51.7682H57.4362C57.6429 51.7682 57.8105 51.5996 57.8105 51.3917V46.3042C57.8105 46.0963 57.6429 45.9277 57.4362 45.9277Z" fill="#78707B"/>
<path d="M55.0887 45.9277H54.3515C54.1449 45.9277 53.9773 46.0963 53.9773 46.3042V51.3917C53.9773 51.5996 54.1449 51.7682 54.3515 51.7682H55.0887C55.2954 51.7682 55.4629 51.5996 55.4629 51.3917V46.3042C55.4629 46.0963 55.2954 45.9277 55.0887 45.9277Z" fill="#78707B"/>
<path d="M52.7298 45.9277H51.9927C51.786 45.9277 51.6184 46.0963 51.6184 46.3042V51.3917C51.6184 51.5996 51.786 51.7682 51.9927 51.7682H52.7298C52.9365 51.7682 53.104 51.5996 53.104 51.3917V46.3042C53.104 46.0963 52.9365 45.9277 52.7298 45.9277Z" fill="#78707B"/>
<path d="M60.1694 54.3574V55.4297C60.1694 56.1027 59.625 56.6503 58.9559 56.6503H52.8319C52.1628 56.6503 51.6184 56.1027 51.6184 55.4297V54.3574H60.158H60.1694Z" fill="#78707B"/>
<path d="M52.6618 23.8994L51.4143 26.4888H60.7024L59.092 23.8994H52.6618Z" fill="#78707B"/>
<path d="M59.3982 17.5908H52.401C51.856 17.5908 51.4143 18.0351 51.4143 18.5832V22.8951C51.4143 23.4432 51.856 23.8875 52.401 23.8875H59.3982C59.9431 23.8875 60.3849 23.4432 60.3849 22.8951V18.5832C60.3849 18.0351 59.9431 17.5908 59.3982 17.5908Z" fill="#C2C1C1"/>
<path d="M56.2227 10.0742H55.5082C54.7504 10.0742 54.136 10.6922 54.136 11.4545V12.1731C54.136 12.9354 54.7504 13.5534 55.5082 13.5534H56.2227C56.9806 13.5534 57.5949 12.9354 57.5949 12.1731V11.4545C57.5949 10.6922 56.9806 10.0742 56.2227 10.0742Z" fill="#C2C1C1"/>
<path d="M53.3648 12.573L52.0153 17.6948H59.727L58.4001 12.573C58.3434 12.3563 58.162 12.208 57.9351 12.208H53.8184C53.603 12.208 53.4102 12.3563 53.3535 12.573H53.3648Z" fill="#78707B"/>
<path d="M56.4495 4.63317V10.2569H55.3381V4.63317C55.3381 4.32518 55.5876 4.07422 55.8938 4.07422C56.2 4.07422 56.4495 4.32518 56.4495 4.63317Z" fill="#C2C1C1"/>
<path d="M49.0894 29.2041V32.0217H41.8313V31.1547C41.8313 30.071 42.7045 29.2041 43.7706 29.2041H49.0894Z" fill="#78707B"/>
<path d="M26.0789 49.3491V37.2348L38.4403 34.748L39.1094 46.8852L26.0789 49.3491Z" fill="#DEA735"/>
<path d="M49.0894 48.9726H41.389C41.1736 48.9726 40.9581 48.9498 40.754 48.9042C39.4271 48.619 38.4404 47.4213 38.4404 46.0068V34.8506C38.4404 33.4247 39.4271 32.2498 40.754 31.9532C40.9581 31.9076 41.1736 31.8848 41.389 31.8848H49.0894V48.984V48.9726Z" fill="#FBBE36"/>
<path d="M26.0789 49.9422V37.8393L38.4403 35.3525L39.1094 47.4897L26.0789 49.9422Z" fill="#FBBE36"/>
<path d="M40.8446 48.9273C40.0281 48.9273 39.2002 48.6421 38.6672 48.0945C38.1342 47.5584 37.8053 46.8169 37.8053 45.9956V34.8395C37.8053 33.2083 39.2456 31.9307 40.8673 31.9307L40.7539 31.9535C39.427 32.2387 38.4404 33.4364 38.4404 34.8509V46.007C38.4404 47.4329 39.427 48.6079 40.7539 48.9044L40.8446 48.9273Z" fill="#DEA735"/>
<path d="M26.0789 36.9379V50.3299C26.0789 51.6987 24.9675 52.828 23.5953 52.828H21.9169V34.4512H23.5953C24.9562 34.4512 26.0789 35.5691 26.0789 36.9493V36.9379Z" fill="#78707B"/>
<path d="M49.0667 31.8623V48.973C48.7379 48.973 48.4543 48.6992 48.4543 48.357V32.4783C48.4543 32.1475 48.7265 31.8623 49.0667 31.8623Z" fill="#DEA735"/>
<path d="M43.8839 35.9346H43.6911C43.0961 35.9346 42.6138 36.4197 42.6138 37.0182V43.8055C42.6138 44.404 43.0961 44.8891 43.6911 44.8891H43.8839C44.479 44.8891 44.9613 44.404 44.9613 43.8055V37.0182C44.9613 36.4197 44.479 35.9346 43.8839 35.9346Z" fill="#C2C1C1" stroke="#231F20" stroke-width="0.06" stroke-miterlimit="10"/>
<path d="M43.8839 39.584H43.6911C43.0961 39.584 42.6138 40.0692 42.6138 40.6677V43.6905C42.6138 44.289 43.0961 44.7742 43.6911 44.7742H43.8839C44.479 44.7742 44.9613 44.289 44.9613 43.6905V40.6677C44.9613 40.0692 44.479 39.584 43.8839 39.584Z" fill="#524B57"/>
<path d="M43.8839 39.7568H43.6911C43.0961 39.7568 42.6138 40.242 42.6138 40.8405V43.8064C42.6138 44.4049 43.0961 44.89 43.6911 44.89H43.8839C44.479 44.89 44.9613 44.4049 44.9613 43.8064V40.8405C44.9613 40.242 44.479 39.7568 43.8839 39.7568Z" fill="#78707B"/>
<path d="M42.9427 18.7787L44.9613 21.1058L44.9273 21.2198L41.9107 21.8016L43.9293 24.1287L43.8839 24.2427L40.8673 24.8359L42.886 27.163L42.8519 27.277H42.8406L39.8466 27.8588L41.8426 30.1744L41.8199 30.2999L38.8033 30.8931L40.8219 33.2201L40.7879 33.3228H40.7766L37.7826 33.9274L39.7786 36.243L39.7446 36.3457L36.7392 36.9503L38.7352 39.2659L38.7012 39.38L35.6959 39.9617L37.6919 42.2888L37.6692 42.4029L34.6639 42.996L36.6712 45.3231L36.6258 45.4371L33.6319 46.0189L35.6279 48.346L35.5938 48.46L32.5999 49.0532L34.6072 51.3574V51.3802L34.5505 51.4943L31.5565 52.0875L33.5638 54.4031L33.3937 54.8708H27.8934V13.8965H41.7065L45.9707 18.1856L42.9427 18.7787Z" fill="#C3D5D9"/>
<path d="M28.3018 54.4587V14.3057H41.5365L45.1428 17.9331L42.1715 18.5035L44.2696 20.9218L41.1395 21.5378L43.2376 23.9561L40.0962 24.5721L42.2056 26.9904L39.0755 27.595L41.1736 30.0133L38.0322 30.6292L40.1302 33.0361L37.0115 33.6635L39.0868 36.059L35.9681 36.6864L38.0435 39.0819L34.9248 39.6979L37.0115 42.1162L33.9041 42.7322L35.9795 45.1391L32.8608 45.7551L34.9361 48.1734L31.8287 48.7894L33.9268 51.1963L30.7967 51.8123L33.0649 54.4587H28.3018Z" fill="#D9EAEF"/>
<path d="M33.4391 54.6636L33.0649 54.4583H28.3017V19.7236H27.8141L27.8935 54.8689H33.3938L33.4391 54.6636Z" fill="#D9EAEF"/>
<path d="M41.5365 0.515625H27.7914C27.0883 0.515625 26.5326 1.08598 26.5326 1.78181V18.8126C26.5326 19.5199 27.0883 20.0788 27.7914 20.0788H39.3704L46.1295 13.2802V5.14691C46.1295 2.59172 44.0768 0.527032 41.5365 0.527032V0.515625ZM42.7613 7.55381C42.7613 9.12799 41.4911 10.3828 39.9261 10.3828H32.8494C31.2844 10.3828 30.0142 9.11659 30.0142 7.55381V7.32567C30.0142 5.75149 31.2844 4.47389 32.8494 4.47389H39.9261C41.4911 4.47389 42.7613 5.75149 42.7613 7.32567V7.55381Z" fill="#3879BA"/>
<mask id="mask0_10023_23901" style="mask-type:luminance" maskUnits="userSpaceOnUse" x="26" y="0" width="21" height="21">
<path d="M41.5365 0.515625H27.7914C27.0883 0.515625 26.5326 1.08598 26.5326 1.78181V18.8126C26.5326 19.5199 27.0883 20.0788 27.7914 20.0788H39.3704L46.1295 13.2802V5.14691C46.1295 2.59172 44.0768 0.527032 41.5365 0.527032V0.515625ZM42.7613 7.55381C42.7613 9.12799 41.4911 10.3828 39.9261 10.3828H32.8494C31.2844 10.3828 30.0142 9.11659 30.0142 7.55381V7.32567C30.0142 5.75149 31.2844 4.47389 32.8494 4.47389H39.9261C41.4911 4.47389 42.7613 5.75149 42.7613 7.32567V7.55381Z" fill="white"/>
</mask>
<g mask="url(#mask0_10023_23901)">
<path opacity="0.4" d="M42.9994 0.516684C42.9994 0.516684 45.5397 2.09087 45.4603 4.68028C45.381 7.26969 45.4603 15.8935 45.4603 15.8935H48.7378V0.448242H43.7479L42.9994 0.528092" fill="white"/>
</g>
<path d="M31.4432 16.9416C31.9317 16.9416 32.3278 16.5433 32.3278 16.0519C32.3278 15.5605 31.9317 15.1621 31.4432 15.1621C30.9546 15.1621 30.5586 15.5605 30.5586 16.0519C30.5586 16.5433 30.9546 16.9416 31.4432 16.9416Z" fill="#D9EAEF"/>
<path d="M31.4544 15.583H31.443C31.3866 15.583 31.3409 15.629 31.3409 15.6857V16.4157C31.3409 16.4724 31.3866 16.5184 31.443 16.5184H31.4544C31.5107 16.5184 31.5564 16.4724 31.5564 16.4157V15.6857C31.5564 15.629 31.5107 15.583 31.4544 15.583Z" fill="#606161"/>
<mask id="mask1_10023_23901" style="mask-type:luminance" maskUnits="userSpaceOnUse" x="31" y="15" width="1" height="2">
<path d="M31.4544 15.582H31.443C31.3866 15.582 31.3409 15.628 31.3409 15.6847V16.4147C31.3409 16.4714 31.3866 16.5174 31.443 16.5174H31.4544C31.5107 16.5174 31.5564 16.4714 31.5564 16.4147V15.6847C31.5564 15.628 31.5107 15.582 31.4544 15.582Z" fill="white"/>
</mask>
<g mask="url(#mask1_10023_23901)">
<path d="M31.6018 15.5723H31.5905C31.5341 15.5723 31.4884 15.6182 31.4884 15.6749V16.405C31.4884 16.4617 31.5341 16.5076 31.5905 16.5076H31.6018C31.6582 16.5076 31.7039 16.4617 31.7039 16.405V15.6749C31.7039 15.6182 31.6582 15.5723 31.6018 15.5723Z" fill="#606161"/>
</g>
<path d="M31.0802 15.9604C31.0238 15.9604 30.9781 16.0038 30.9781 16.0573C30.9781 16.1109 31.0238 16.1543 31.0802 16.1543H31.806C31.8624 16.1543 31.9081 16.1109 31.9081 16.0573C31.9081 16.0038 31.8624 15.9604 31.806 15.9604H31.0802Z" fill="#606161"/>
<mask id="mask2_10023_23901" style="mask-type:luminance" maskUnits="userSpaceOnUse" x="30" y="15" width="2" height="2">
<path d="M31.0802 15.9614C31.0238 15.9614 30.9781 16.0048 30.9781 16.0583C30.9781 16.1119 31.0238 16.1553 31.0802 16.1553H31.806C31.8624 16.1553 31.9081 16.1119 31.9081 16.0583C31.9081 16.0048 31.8624 15.9614 31.806 15.9614H31.0802Z" fill="white"/>
</mask>
<g mask="url(#mask2_10023_23901)">
<path d="M31.0689 15.8139C31.0125 15.8139 30.9668 15.8573 30.9668 15.9108C30.9668 15.9644 31.0125 16.0078 31.0689 16.0078H31.7947C31.851 16.0078 31.8967 15.9644 31.8967 15.9108C31.8967 15.8573 31.851 15.8139 31.7947 15.8139H31.0689Z" fill="#606161"/>
</g>
<path d="M35.9567 16.9309C36.4453 16.9309 36.8413 16.5325 36.8413 16.0411C36.8413 15.5497 36.4453 15.1514 35.9567 15.1514C35.4682 15.1514 35.0721 15.5497 35.0721 16.0411C35.0721 16.5325 35.4682 16.9309 35.9567 16.9309Z" fill="#D9EAEF"/>
<path d="M35.9681 15.5752H35.9568C35.9004 15.5752 35.8547 15.6212 35.8547 15.6779V16.4079C35.8547 16.4646 35.9004 16.5106 35.9568 16.5106H35.9681C36.0245 16.5106 36.0702 16.4646 36.0702 16.4079V15.6779C36.0702 15.6212 36.0245 15.5752 35.9681 15.5752Z" fill="#606161"/>
<mask id="mask3_10023_23901" style="mask-type:luminance" maskUnits="userSpaceOnUse" x="35" y="15" width="2" height="2">
<path d="M35.9681 15.5752H35.9568C35.9004 15.5752 35.8547 15.6212 35.8547 15.6779V16.4079C35.8547 16.4646 35.9004 16.5106 35.9568 16.5106H35.9681C36.0245 16.5106 36.0702 16.4646 36.0702 16.4079V15.6779C36.0702 15.6212 36.0245 15.5752 35.9681 15.5752Z" fill="white"/>
</mask>
<g mask="url(#mask3_10023_23901)">
<path d="M36.1156 15.5752H36.1043C36.0479 15.5752 36.0022 15.6212 36.0022 15.6779V16.4079C36.0022 16.4646 36.0479 16.5106 36.1043 16.5106H36.1156C36.172 16.5106 36.2177 16.4646 36.2177 16.4079V15.6779C36.2177 15.6212 36.172 15.5752 36.1156 15.5752Z" fill="#606161"/>
</g>
<path d="M35.5939 15.9496C35.5375 15.9496 35.4918 15.993 35.4918 16.0466C35.4918 16.1001 35.5375 16.1436 35.5939 16.1436H36.3197C36.3761 16.1436 36.4218 16.1001 36.4218 16.0466C36.4218 15.993 36.3761 15.9496 36.3197 15.9496H35.5939Z" fill="#606161"/>
<mask id="mask4_10023_23901" style="mask-type:luminance" maskUnits="userSpaceOnUse" x="35" y="15" width="2" height="2">
<path d="M35.5939 15.9487C35.5375 15.9487 35.4918 15.9921 35.4918 16.0456C35.4918 16.0992 35.5375 16.1426 35.5939 16.1426H36.3197C36.3761 16.1426 36.4218 16.0992 36.4218 16.0456C36.4218 15.9921 36.3761 15.9487 36.3197 15.9487H35.5939Z" fill="white"/>
</mask>
<g mask="url(#mask4_10023_23901)">
<path d="M35.5825 15.8129C35.5262 15.8129 35.4805 15.8563 35.4805 15.9099C35.4805 15.9634 35.5262 16.0068 35.5825 16.0068H36.3083C36.3647 16.0068 36.4104 15.9634 36.4104 15.9099C36.4104 15.8563 36.3647 15.8129 36.3083 15.8129H35.5825Z" fill="#606161"/>
</g>
<path opacity="0.7" d="M31.6133 22.669C31.6133 22.2154 31.2477 21.8477 30.7968 21.8477C30.3458 21.8477 29.9802 22.2154 29.9802 22.669V27.9276C29.9802 28.3812 30.3458 28.749 30.7968 28.749C31.2477 28.749 31.6133 28.3812 31.6133 27.9276V22.669Z" fill="white"/>
<path d="M72.4969 23.6396H1.51485C1.10147 23.6396 0.766357 23.9767 0.766357 24.3925V26.4686C0.766357 26.8844 1.10147 27.2215 1.51485 27.2215H72.4969C72.9102 27.2215 73.2453 26.8844 73.2453 26.4686V24.3925C73.2453 23.9767 72.9102 23.6396 72.4969 23.6396Z" fill="#995926"/>
<mask id="mask5_10023_23901" style="mask-type:luminance" maskUnits="userSpaceOnUse" x="0" y="23" width="74" height="5">
<path d="M72.497 23.6406H1.51497C1.10159 23.6406 0.766479 23.9777 0.766479 24.3935V26.4696C0.766479 26.8854 1.10159 27.2225 1.51497 27.2225H72.497C72.9104 27.2225 73.2455 26.8854 73.2455 26.4696V24.3935C73.2455 23.9777 72.9104 23.6406 72.497 23.6406Z" fill="white"/>
</mask>
<g mask="url(#mask5_10023_23901)">
<g opacity="0.4">
<path d="M23.777 29.9478L21.1799 29.1949L26.2379 21.2441L28.835 21.997L23.777 29.9478Z" fill="white"/>
</g>
<g opacity="0.4">
<path d="M48.7155 29.9478L46.0164 29.1949L51.2671 21.2441L53.9662 21.997L48.7155 29.9478Z" fill="white"/>
</g>
</g>
<path d="M23.6746 29.2636V25.5791H18.9341V29.2636H23.6746Z" fill="#708088"/>
<path d="M20.5786 29.2636V25.5791H18.9229V29.2636H20.5786Z" fill="#5C6A71"/>
<path d="M19.1497 28.6348H23.4365C23.9355 28.6348 24.3324 29.034 24.3324 29.5359V48.6542C24.3324 50.3425 22.9716 51.7114 21.2931 51.7114C19.6147 51.7114 18.2538 50.3425 18.2538 48.6542V29.5359C18.2538 29.034 18.6507 28.6348 19.1497 28.6348Z" fill="#90624A"/>
<mask id="mask6_10023_23901" style="mask-type:luminance" maskUnits="userSpaceOnUse" x="18" y="28" width="7" height="24">
<path d="M19.1498 28.6348H23.4366C23.9356 28.6348 24.3326 29.034 24.3326 29.5359V48.6542C24.3326 50.3425 22.9717 51.7114 21.2932 51.7114C19.6148 51.7114 18.2539 50.3425 18.2539 48.6542V29.5359C18.2539 29.034 18.6508 28.6348 19.1498 28.6348Z" fill="white"/>
</mask>
<g mask="url(#mask6_10023_23901)">
<path d="M20.3405 28.6348H24.6273C25.1263 28.6348 25.5232 29.034 25.5232 29.5359V48.6542C25.5232 50.3425 24.1623 51.7114 22.4839 51.7114C20.8055 51.7114 19.4446 50.3425 19.4446 48.6542V29.5359C19.4446 29.034 19.8415 28.6348 20.3405 28.6348Z" fill="#B8805B"/>
</g>
<path d="M17.7773 17.9238V25.8518H17.766C17.7319 24.6768 16.768 23.7529 15.5885 23.7529C14.4091 23.7529 13.4451 24.6768 13.4111 25.8518H13.3771V17.9238H13.3884C13.4224 19.1216 14.3864 20.0798 15.5772 20.0798C16.768 20.0798 17.7319 19.1216 17.766 17.9238H17.7773Z" fill="#5C6A71"/>
<path d="M13.3884 17.9131H9.72534V25.8524H13.3884V17.9131Z" fill="#708088"/>
<path d="M13.3884 23.9697H9.72534V25.8519H13.3884V23.9697Z" fill="#5C6A71"/>
<path d="M17.7773 17.8779H24.0261C24.6612 17.8779 25.1715 18.3913 25.1715 19.0301V24.6994C25.1715 25.3382 24.6612 25.8515 24.0261 25.8515H17.7773V17.8893V17.8779Z" fill="#708088"/>
<path d="M25.1262 19.4628C25.1262 19.4628 29.0728 18.7898 31.7152 21.0142C31.7152 21.0142 33.9267 22.6682 34.3576 24.9839C34.3576 24.9839 29.0955 23.1816 25.1489 24.2652L25.1262 19.4514V19.4628Z" fill="#708088"/>
<path d="M25.1376 22.5431C25.1376 22.5431 30.6719 19.9993 34.2556 24.95C34.2556 24.95 29.6739 23.3187 25.1603 24.2998V22.5431H25.1376Z" fill="#5C6A71"/>
<path d="M46.9121 31.9424H45.3698V42.6651H46.9121V31.9424Z" fill="#C3D5D9"/>
<path d="M46.6172 31.9424H45.3698V42.6651H46.6172V31.9424Z" fill="#D9EAEF"/>
<path d="M48.1369 30.5965H47.8534C47.4904 30.3456 47.2523 29.9121 47.2523 29.4102C47.2523 28.9083 47.4791 28.4862 47.8193 28.2467C47.9668 28.2124 48.1029 28.1554 48.2049 28.0527C48.2276 28.0413 48.2503 28.0185 48.273 27.9957C48.4431 27.8246 48.5451 27.5964 48.5451 27.3455V21.4138C48.5451 20.5012 47.8193 19.7598 46.9007 19.7598H45.347C44.4284 19.7598 43.6913 20.5012 43.6913 21.4138V27.3455C43.6913 27.5964 43.7934 27.836 43.9748 27.9957C43.9861 28.0071 44.0088 28.0299 44.0202 28.0413C44.1449 28.1554 44.3037 28.2238 44.4738 28.2467C44.814 28.4976 45.0408 28.9311 45.0408 29.4102C45.0408 29.8893 44.8027 30.3456 44.4398 30.5965H44.1222C43.8841 30.5965 43.6913 30.7904 43.6913 31.03V32.0224C43.6913 32.262 43.8841 32.4559 44.1222 32.4559H48.1255C48.3637 32.4559 48.5565 32.262 48.5565 32.0224V31.03C48.5565 30.7904 48.3637 30.5965 48.1255 30.5965H48.1369Z" fill="#2DB2E0"/>
<mask id="mask7_10023_23901" style="mask-type:luminance" maskUnits="userSpaceOnUse" x="43" y="19" width="6" height="14">
<path d="M48.1369 30.5965H47.8534C47.4904 30.3456 47.2523 29.9121 47.2523 29.4102C47.2523 28.9083 47.4791 28.4862 47.8193 28.2467C47.9668 28.2124 48.1029 28.1554 48.2049 28.0527C48.2276 28.0413 48.2503 28.0185 48.273 27.9957C48.4431 27.8246 48.5451 27.5964 48.5451 27.3455V21.4138C48.5451 20.5012 47.8193 19.7598 46.9007 19.7598H45.347C44.4284 19.7598 43.6913 20.5012 43.6913 21.4138V27.3455C43.6913 27.5964 43.7934 27.836 43.9748 27.9957C43.9861 28.0071 44.0088 28.0299 44.0202 28.0413C44.1449 28.1554 44.3037 28.2238 44.4738 28.2467C44.814 28.4976 45.0408 28.9311 45.0408 29.4102C45.0408 29.8893 44.8027 30.3456 44.4398 30.5965H44.1222C43.8841 30.5965 43.6913 30.7904 43.6913 31.03V32.0224C43.6913 32.262 43.8841 32.4559 44.1222 32.4559H48.1255C48.3637 32.4559 48.5565 32.262 48.5565 32.0224V31.03C48.5565 30.7904 48.3637 30.5965 48.1255 30.5965H48.1369Z" fill="white"/>
</mask>
<g mask="url(#mask7_10023_23901)">
<path opacity="0.4" d="M51.7205 30.5965H51.437C51.0741 30.3456 50.8359 29.9121 50.8359 29.4102C50.8359 28.9083 51.0627 28.4862 51.4029 28.2467C51.5504 28.2124 51.6865 28.1554 51.7885 28.0527C51.8112 28.0413 51.8339 28.0185 51.8566 27.9957C52.0267 27.8246 52.1288 27.5964 52.1288 27.3455V21.4138C52.1288 20.5012 51.4029 19.7598 50.4843 19.7598H48.9307C48.0121 19.7598 47.2749 20.5012 47.2749 21.4138V27.3455C47.2749 27.5964 47.377 27.836 47.5584 27.9957C47.5698 28.0071 47.5924 28.0299 47.6038 28.0413C47.7285 28.1554 47.8873 28.2238 48.0574 28.2467C48.3976 28.4976 48.6245 28.9311 48.6245 29.4102C48.6245 29.8893 48.3863 30.3456 48.0234 30.5965H47.7058C47.4677 30.5965 47.2749 30.7904 47.2749 31.03V32.0224C47.2749 32.262 47.4677 32.4559 47.7058 32.4559H51.7092C51.9473 32.4559 52.1401 32.262 52.1401 32.0224V31.03C52.1401 30.7904 51.9473 30.5965 51.7092 30.5965H51.7205Z" fill="white"/>
</g>
<g opacity="0.4">
<path d="M45.0407 26.3398H45.2902C45.3716 26.3398 45.4376 26.2734 45.4376 26.1916V21.9595C45.4376 21.8776 45.3716 21.8112 45.2902 21.8112H45.0407C44.9593 21.8112 44.8933 21.8776 44.8933 21.9595V26.1916C44.8933 26.2734 44.9593 26.3398 45.0407 26.3398Z" fill="#E5E5E5"/>
<path d="M45.0861 26.3281H45.3015C45.3767 26.3281 45.4376 26.2668 45.4376 26.1912V22.1075C45.4376 22.0319 45.3767 21.9706 45.3015 21.9706H45.0861C45.0109 21.9706 44.95 22.0319 44.95 22.1075V26.1912C44.95 26.2668 45.0109 26.3281 45.0861 26.3281Z" fill="#282828"/>
</g>
<g opacity="0.4">
<path d="M46.8553 26.3398H47.1048C47.1862 26.3398 47.2522 26.2734 47.2522 26.1916V21.9595C47.2522 21.8776 47.1862 21.8112 47.1048 21.8112H46.8553C46.7738 21.8112 46.7078 21.8776 46.7078 21.9595V26.1916C46.7078 26.2734 46.7738 26.3398 46.8553 26.3398Z" fill="#E5E5E5"/>
<path d="M46.9006 26.3281H47.1161C47.1913 26.3281 47.2522 26.2668 47.2522 26.1912V22.1075C47.2522 22.0319 47.1913 21.9706 47.1161 21.9706H46.9006C46.8255 21.9706 46.7645 22.0319 46.7645 22.1075V26.1912C46.7645 26.2668 46.8255 26.3281 46.9006 26.3281Z" fill="#282828"/>
</g>
<path d="M73.4834 19.4984V60.9176C73.4834 61.4993 73.007 61.9784 72.4287 61.9784H1.57142C0.993037 61.9784 0.516724 61.4993 0.516724 60.9176V19.4984C0.516724 18.9166 0.993037 18.4375 1.57142 18.4375H6.73148C7.10572 18.4375 7.44595 18.6314 7.63874 18.9622L17.2557 35.5254C17.4485 35.8447 17.7887 36.0501 18.163 36.0501H55.8144C56.1887 36.0501 56.5289 35.8562 56.7217 35.5254L66.3387 18.9622C66.5315 18.6428 66.8717 18.4375 67.2459 18.4375H72.406C72.9844 18.4375 73.4607 18.9166 73.4607 19.4984H73.4834Z" fill="#D8872D"/>
<mask id="mask8_10023_23901" style="mask-type:luminance" maskUnits="userSpaceOnUse" x="0" y="18" width="74" height="44">
<path d="M73.4834 19.4993V60.9186C73.4834 61.5003 73.007 61.9794 72.4287 61.9794H1.57142C0.993037 61.9794 0.516724 61.5003 0.516724 60.9186V19.4993C0.516724 18.9176 0.993037 18.4385 1.57142 18.4385H6.73148C7.10572 18.4385 7.44595 18.6324 7.63874 18.9632L17.2557 35.5263C17.4485 35.8457 17.7887 36.0511 18.163 36.0511H55.8144C56.1887 36.0511 56.5289 35.8571 56.7217 35.5263L66.3387 18.9632C66.5315 18.6438 66.8717 18.4385 67.2459 18.4385H72.406C72.9844 18.4385 73.4607 18.9176 73.4607 19.4993H73.4834Z" fill="white"/>
</mask>
<g mask="url(#mask8_10023_23901)">
<path opacity="0.2" d="M71.8616 17.343V63.4506H77.2144V16.6016H71.7368C71.7368 16.6016 71.975 17.2175 71.8616 17.3316V17.343Z" fill="black"/>
</g>
</svg>
