<svg width="70" height="52" viewBox="0 0 70 52" fill="none" xmlns="http://www.w3.org/2000/svg">
<path d="M63.578 5.98633V22.8344C63.578 31.6364 59.6075 39.5008 53.3503 44.7437C52.4893 45.4612 51.5804 46.131 50.6332 46.7528C46.146 49.6996 40.7691 51.4121 35 51.4121C29.2308 51.4121 23.8539 49.6996 19.3667 46.7528C18.4195 46.1405 17.5202 45.4708 16.6591 44.7437C10.402 39.5103 6.42194 31.6364 6.42194 22.8344V5.98633H63.578Z" fill="#E5E5E5"/>
<path d="M1.6574 0.610352H68.3426C68.8784 0.610352 69.3185 1.05045 69.3185 1.58622V7.20226C69.3185 11.5171 65.8168 15.0188 61.5019 15.0188H8.49814C4.18321 15.0188 0.681519 11.5171 0.681519 7.20226V1.58622C0.681519 1.05045 1.12162 0.610352 1.6574 0.610352Z" fill="#949CB2"/>
<path d="M1.6574 3.05078H68.3426C68.8784 3.05078 69.3185 3.49088 69.3185 4.02665V7.20301C69.3185 11.5179 65.8168 15.0195 61.5019 15.0195H8.49814C4.18321 15.0195 0.681519 11.5179 0.681519 7.20301V4.02665C0.681519 3.49088 1.12162 3.05078 1.6574 3.05078Z" fill="#C2C1C0"/>
<path opacity="0.4" d="M67.405 4.96289V7.20165C67.405 10.4641 64.7644 13.1047 61.5019 13.1047L8.49815 13.1047C5.23565 13.1047 2.59502 10.4641 2.59502 7.20165V4.96289L67.405 4.96289Z" fill="url(#paint0_linear_10023_24111)"/>
<path d="M53.3505 37.6471V44.746C52.4895 45.4636 51.5805 46.1333 50.6334 46.7552C46.1462 49.7019 40.7693 51.4145 35.0001 51.4145C29.2309 51.4145 23.854 49.7019 19.3669 46.7552C18.4197 46.1429 17.5204 45.4732 16.6593 44.746V37.6471C16.6593 27.5152 24.8682 19.2969 35.0001 19.2969C40.0709 19.2969 44.6441 21.3539 47.9736 24.6737C51.2935 27.9936 53.3505 32.5859 53.3505 37.6471Z" fill="#C2C1C0"/>
<path d="M35.0001 46.811C41.4096 46.811 46.6054 41.6152 46.6054 35.2058C46.6054 28.7964 41.4096 23.6006 35.0001 23.6006C28.5907 23.6006 23.3948 28.7964 23.3948 35.2058C23.3948 41.6152 28.5907 46.811 35.0001 46.811Z" fill="#454546"/>
<path d="M35 43.8066C39.7503 43.8066 43.6012 39.9558 43.6012 35.2055C43.6012 30.4553 39.7503 26.6045 35 26.6045C30.2497 26.6045 26.3989 30.4553 26.3989 35.2055C26.3989 39.9558 30.2497 43.8066 35 43.8066Z" fill="#E5E5E5"/>
<path d="M35 40.1524C37.7318 40.1524 39.9464 37.9379 39.9464 35.2061C39.9464 32.4743 37.7318 30.2598 35 30.2598C32.2682 30.2598 30.0536 32.4743 30.0536 35.2061C30.0536 37.9379 32.2682 40.1524 35 40.1524Z" fill="#2A77B7"/>
<path d="M35.0001 38.2179C36.6645 38.2179 38.0138 36.8686 38.0138 35.2041C38.0138 33.5397 36.6645 32.1904 35.0001 32.1904C33.3356 32.1904 31.9863 33.5397 31.9863 35.2041C31.9863 36.8686 33.3356 38.2179 35.0001 38.2179Z" fill="#454546"/>
<mask id="mask0_10023_24111" style="mask-type:luminance" maskUnits="userSpaceOnUse" x="31" y="32" width="8" height="7">
<path d="M35.0003 38.2179C36.6647 38.2179 38.014 36.8686 38.014 35.2041C38.014 33.5397 36.6647 32.1904 35.0003 32.1904C33.3358 32.1904 31.9865 33.5397 31.9865 35.2041C31.9865 36.8686 33.3358 38.2179 35.0003 38.2179Z" fill="white"/>
</mask>
<g mask="url(#mask0_10023_24111)">
<path d="M34.9141 39.1455C35.4372 39.1455 35.8613 38.5758 35.8613 37.873C35.8613 37.1703 35.4372 36.6006 34.9141 36.6006C34.391 36.6006 33.9669 37.1703 33.9669 37.873C33.9669 38.5758 34.391 39.1455 34.9141 39.1455Z" fill="white"/>
<path d="M33.7659 34.5247C34.3682 34.5247 34.8566 34.0107 34.8566 33.3766C34.8566 32.7425 34.3682 32.2285 33.7659 32.2285C33.1635 32.2285 32.6752 32.7425 32.6752 33.3766C32.6752 34.0107 33.1635 34.5247 33.7659 34.5247Z" fill="white"/>
</g>
<defs>
<linearGradient id="paint0_linear_10023_24111" x1="2.59502" y1="9.03858" x2="67.405" y2="9.03858" gradientUnits="userSpaceOnUse">
<stop stop-color="white"/>
<stop offset="1" stop-color="#E5E5E5" stop-opacity="0"/>
</linearGradient>
</defs>
</svg>
