<svg width="74" height="69" viewBox="0 0 74 69" fill="none" xmlns="http://www.w3.org/2000/svg">
<path d="M31.9832 26.0922C31.3958 23.8869 31.5504 21.7537 32.6118 19.7132C35.384 14.3647 42.979 13.6949 46.6065 18.5075C46.9569 18.9815 47.1939 19.1258 47.7916 18.8373C50.8523 17.3945 54.0161 18.0644 56.376 20.6098C56.7058 20.9602 56.8603 21.0529 57.2932 20.7025C59.2924 19.1464 61.5184 18.8167 63.8062 19.9502C66.063 21.0632 67.176 22.9697 67.2275 25.4945C67.2275 25.7006 67.2275 25.8964 67.2275 26.1025C66.9287 26.1232 66.6298 26.1644 66.331 26.1644C59.8798 26.1644 53.4184 26.1747 46.9672 26.1541C46.3283 26.1541 46.0912 26.2674 46.1119 26.9682C46.1531 28.4522 46.0912 29.9361 46.0706 31.4304C45.339 33.914 43.2367 34.5529 40.887 32.9659C40.8767 33.0999 40.8664 33.2132 40.8458 33.3369C40.6088 35.0888 39.3515 36.1812 37.6615 36.109C36.126 36.0472 34.9408 34.79 34.8481 33.0999C34.8172 32.5434 34.8172 31.9972 34.8069 31.4407C34.8172 29.8434 34.8275 28.2358 34.8584 26.6384C34.8584 26.2056 34.642 26.1644 34.3019 26.1541C33.529 26.1438 32.7561 26.2365 31.9832 26.0922Z" fill="#27BAE8"/>
<path d="M33.6114 62.1813C33.3332 60.3367 33.3022 58.4817 33.1477 56.6267C32.9931 54.9264 32.89 53.2157 32.7664 51.5153C33.0343 51.5153 33.2301 51.7008 33.4465 51.8348C34.6213 52.5767 35.8889 53.1332 37.2183 53.5557C38.9908 54.1225 40.8251 54.2359 42.6595 54.3183C42.7316 55.2046 43.0717 55.6168 43.8858 55.6168C47.5958 55.6374 51.2954 55.6271 55.0053 55.6168C55.6443 55.6168 56.1183 55.318 56.1904 54.6069C56.3244 54.1741 56.6954 54.2771 57.0046 54.2668C60.0446 54.2153 62.8683 53.4218 65.4653 51.8141C65.6817 51.6802 65.8775 51.5256 66.1351 51.4844C65.9496 53.968 65.7641 56.4619 65.558 58.9455C65.4653 60.0172 65.4859 61.1096 65.2591 62.171C54.7065 62.171 44.1641 62.171 33.6114 62.171V62.1813Z" fill="#2A77B7"/>
<mask id="mask0_10023_24130" style="mask-type:luminance" maskUnits="userSpaceOnUse" x="32" y="51" width="35" height="12">
<path d="M33.6113 62.1823C33.333 60.3377 33.3021 58.4827 33.1475 56.6277C32.993 54.9273 32.8899 53.2167 32.7662 51.5163C33.0342 51.5163 33.23 51.7018 33.4464 51.8357C34.6212 52.5777 35.8888 53.1342 37.2181 53.5567C38.9907 54.1235 40.825 54.2369 42.6594 54.3193C42.7315 55.2056 43.0716 55.6178 43.8857 55.6178C47.5956 55.6384 51.2953 55.6281 55.0052 55.6178C55.6441 55.6178 56.1182 55.3189 56.1903 54.6079C56.3243 54.175 56.6953 54.2781 57.0044 54.2678C60.0445 54.2163 62.8682 53.4228 65.4651 51.8151C65.6815 51.6812 65.8773 51.5266 66.135 51.4854C65.9495 53.9689 65.764 56.4628 65.5579 58.9464C65.4651 60.0182 65.4857 61.1105 65.259 62.172C54.7063 62.172 44.164 62.172 33.6113 62.172V62.1823Z" fill="white"/>
</mask>
<g mask="url(#mask0_10023_24130)">
<path opacity="0.39" d="M65.2899 61.1631C65.5682 63.0077 65.5991 64.8627 65.7537 66.7177C65.9083 68.4181 66.0113 70.1287 66.135 71.8291C65.867 71.8291 65.6712 71.6436 65.4548 71.5097C64.28 70.7677 63.0125 70.2112 61.6831 69.7887C59.9105 69.2219 58.0762 69.1085 56.2418 69.0261C56.1697 68.1398 55.8296 67.7276 55.0155 67.7276C51.3056 67.707 47.6059 67.7173 43.896 67.7276C43.2571 67.7276 42.783 68.0265 42.7109 68.7375C42.5769 69.1703 42.2059 69.0673 41.8968 69.0776C38.8567 69.1291 36.033 69.9226 33.4361 71.5303C33.2197 71.6642 33.0239 71.8188 32.7662 71.86C32.9517 69.3765 33.1372 66.8826 33.3433 64.399C33.4361 63.3272 33.4155 62.2348 33.6422 61.1734C44.1949 61.1734 54.7373 61.1734 65.2899 61.1734V61.1631Z" fill="black"/>
</g>
<path d="M33.6114 62.1826C44.1641 62.1826 54.7065 62.1826 65.2592 62.1826C65.3313 63.275 65.2179 64.357 65.0531 65.4288C64.8057 67.0261 63.5588 68.0567 61.9305 68.0567C53.6038 68.067 45.2668 68.067 36.94 68.0567C35.2809 68.0567 34.0442 67.0158 33.8072 65.3464C33.6629 64.3055 33.529 63.2441 33.6114 62.1826Z" fill="#316A9A"/>
<mask id="mask1_10023_24130" style="mask-type:luminance" maskUnits="userSpaceOnUse" x="33" y="62" width="33" height="7">
<path d="M33.6113 62.1846C44.164 62.1846 54.7063 62.1846 65.259 62.1846C65.3312 63.2769 65.2178 64.359 65.0529 65.4308C64.8056 67.0281 63.5587 68.0586 61.9304 68.0586C53.6037 68.0689 45.2666 68.0689 36.9399 68.0586C35.2807 68.0586 34.0441 67.0178 33.8071 65.3483C33.6628 64.3075 33.5288 63.246 33.6113 62.1846Z" fill="white"/>
</mask>
<g mask="url(#mask1_10023_24130)">
<path opacity="0.4" d="M65.393 72.6335C53.0987 72.6335 40.8044 72.6335 28.4998 72.6335C28.3452 70.6342 28.912 68.6453 29.2418 66.7697C40.0006 66.7594 50.7491 66.7491 61.5079 66.7697C63.4453 66.7697 64.888 67.8106 65.156 69.48C65.3312 70.5209 65.4857 71.5823 65.3827 72.6438L65.393 72.6335Z" fill="black"/>
</g>
<path d="M42.6594 54.3179C40.825 54.2355 38.9907 54.1221 37.2181 53.5553C35.8888 53.1328 34.6315 52.5763 33.4464 51.8343C33.2403 51.7003 33.0445 51.5252 32.7662 51.5148C32.4777 51.082 32.0036 50.8759 31.6326 50.5461C28.4689 47.7637 26.4181 44.3629 26.0059 40.1068C25.6452 36.3866 25.9338 32.656 25.8616 28.9255C25.8513 28.2453 26.2533 27.9259 26.9231 27.9259C27.6548 27.9259 28.3865 27.9156 29.1181 27.9053C29.0975 28.4618 29.0872 29.0183 29.0666 29.5747C28.8605 29.5747 28.6544 29.616 28.4586 29.5747C27.6857 29.4408 27.4899 29.7602 27.5105 30.5228C27.562 33.0889 27.5311 35.6652 27.5311 38.2415C27.5311 41.261 28.4174 44.0022 30.1487 46.4446C30.8185 47.3927 31.4575 48.4129 32.5498 48.99C32.7044 49.1549 32.8281 49.3507 33.0033 49.4847C35.0437 51.0923 37.3521 52.1126 39.9285 52.432C40.825 52.5454 41.7628 52.8133 42.6697 52.4526C42.6697 53.071 42.6697 53.6893 42.6594 54.3179Z" fill="#ACAEB5"/>
<path d="M69.8141 29.5862C69.8141 29.0297 69.8141 28.4732 69.8141 27.9167C70.5457 27.9167 71.2774 27.9064 72.0091 27.9167C72.6583 27.9373 73.019 28.2465 73.019 28.9575C72.9984 32.4304 73.1221 35.9136 72.9675 39.3866C72.8129 42.9419 71.3805 46.0541 69.0515 48.7438C68.1755 49.7537 67.1244 50.5782 66.1454 51.4747C65.8877 51.516 65.6919 51.6705 65.4755 51.8045C62.8889 53.4121 60.0549 54.2057 57.0148 54.2572C56.7056 54.2572 56.3347 54.1644 56.2007 54.5973C56.2007 53.8244 56.2007 53.0515 56.2007 52.2786C56.3243 52.6186 56.6026 52.598 56.8808 52.598C58.1175 52.5774 59.3541 52.4537 60.5495 52.1343C62.7137 51.5366 64.7232 50.64 66.3309 49.0118C66.4648 48.9396 66.6091 48.8881 66.7225 48.7953C69.577 46.0644 71.2053 42.7564 71.3186 38.7888C71.3908 36.2228 71.3393 33.6465 71.3393 31.0804C71.3393 30.0911 70.8309 29.5965 69.8141 29.5965V29.5862Z" fill="#ACAEB5"/>
<path d="M69.8037 27.9281C69.577 26.7636 69.1133 26.238 68.1961 26.135C67.8766 26.1041 67.5468 26.1144 67.2171 26.0938C66.9182 26.1144 66.6194 26.1556 66.3205 26.1556C59.8694 26.1556 53.4079 26.1659 46.9567 26.1453C46.3178 26.1453 46.0808 26.2586 46.1014 26.9594C46.1426 28.4434 46.0808 29.9273 46.0602 31.4216C53.2327 31.4216 60.4052 31.4216 67.5778 31.4319C69.1545 31.3907 69.5358 31.0712 69.814 29.5873C69.814 29.0308 69.814 28.4743 69.814 27.9178L69.8037 27.9281Z" fill="#316A9A"/>
<mask id="mask2_10023_24130" style="mask-type:luminance" maskUnits="userSpaceOnUse" x="46" y="26" width="24" height="6">
<path d="M69.8037 27.9301C69.577 26.7656 69.1133 26.24 68.1961 26.1369C67.8766 26.106 67.5468 26.1163 67.2171 26.0957C66.9182 26.1163 66.6194 26.1575 66.3205 26.1575C59.8694 26.1575 53.4079 26.1678 46.9567 26.1472C46.3178 26.1472 46.0808 26.2606 46.1014 26.9614C46.1426 28.4453 46.0808 29.9293 46.0602 31.4236C53.2327 31.4236 60.4052 31.4236 67.5778 31.4339C69.1545 31.3927 69.5358 31.0732 69.814 29.5892C69.814 29.0327 69.814 28.4762 69.814 27.9198L69.8037 27.9301Z" fill="white"/>
</mask>
<g mask="url(#mask2_10023_24130)">
<path opacity="0.3" d="M69.8037 31.7533C69.577 30.5888 69.1133 30.0632 68.1961 29.9602C67.8766 29.9292 67.5468 29.9396 67.2171 29.9189C66.9182 29.9396 66.6194 29.9808 66.3205 29.9808C59.8694 29.9808 53.4079 29.9911 46.9567 29.9705C46.3178 29.9705 46.0808 30.0838 46.1014 30.7846C46.1426 32.2686 46.0808 33.7525 46.0602 35.2468C53.2327 35.2468 60.4052 35.2468 67.5778 35.2571C69.1545 35.2159 69.5358 34.8964 69.814 33.4125C69.814 32.856 69.814 32.2995 69.814 31.743L69.8037 31.7533Z" fill="black"/>
</g>
<path d="M34.3017 26.1556C33.5287 26.1453 32.7558 26.238 31.9829 26.0938C31.7047 26.0938 31.4265 26.1144 31.1585 26.1144C29.8394 26.1247 29.2829 26.609 29.1181 27.9075C29.0974 28.464 29.0871 29.0205 29.0665 29.577C29.386 31.0918 29.7467 31.3907 31.2925 31.4216C32.4673 31.4216 33.6421 31.4216 34.8169 31.4216C34.8272 29.8243 34.8375 28.2167 34.8684 26.6193C34.8684 26.1865 34.652 26.1453 34.312 26.135L34.3017 26.1556Z" fill="#316A9A"/>
<mask id="mask3_10023_24130" style="mask-type:luminance" maskUnits="userSpaceOnUse" x="29" y="26" width="6" height="6">
<path d="M34.3017 26.1575C33.5287 26.1472 32.7558 26.24 31.9829 26.0957C31.7047 26.0957 31.4265 26.1163 31.1585 26.1163C29.8394 26.1266 29.2829 26.611 29.1181 27.9094C29.0974 28.4659 29.0871 29.0224 29.0665 29.5789C29.386 31.0938 29.7467 31.3927 31.2925 31.4236C32.4673 31.4236 33.6421 31.4236 34.8169 31.4236C34.8272 29.8262 34.8375 28.2186 34.8684 26.6213C34.8684 26.1885 34.652 26.1472 34.312 26.1369L34.3017 26.1575Z" fill="white"/>
</mask>
<g mask="url(#mask3_10023_24130)">
<path opacity="0.3" d="M34.3017 30.3704C33.5287 30.3601 32.7558 30.4529 31.9829 30.3086C31.7047 30.3086 31.4265 30.3292 31.1585 30.3292C29.8394 30.3395 29.2829 30.8239 29.1181 32.1223C29.0974 32.6788 29.0871 33.2353 29.0665 33.7918C29.386 35.3067 29.7467 35.6055 31.2925 35.6365C32.4673 35.6365 33.6421 35.6365 34.8169 35.6365C34.8272 34.0391 34.8375 32.4315 34.8684 30.8342C34.8684 30.4013 34.652 30.3601 34.312 30.3498L34.3017 30.3704Z" fill="black"/>
</g>
<path d="M31.2927 31.4308C32.4675 31.4308 33.6423 31.4308 34.8172 31.4308C34.8275 31.9873 34.8275 32.5437 34.8584 33.0899C34.9511 34.7697 36.1362 36.0373 37.6717 36.0991C39.3618 36.1609 40.6088 35.0789 40.8561 33.327C40.8767 33.2136 40.8767 33.0899 40.8973 32.956C43.2469 34.543 45.3492 33.9041 46.0809 31.4205C53.2534 31.4205 60.426 31.4205 67.5985 31.4308C67.4027 34.1205 67.1966 36.8102 67.0008 39.4999C66.7741 42.6636 66.568 45.8377 66.3413 49.0117C64.7336 50.64 62.7241 51.5468 60.5599 52.1342C59.3645 52.464 58.1279 52.5877 56.8912 52.598C56.6027 52.598 56.3244 52.6186 56.2111 52.2785C56.1699 51.5159 55.6958 51.2274 55.0054 51.2274C51.3057 51.2274 47.5958 51.2274 43.8962 51.2274C43.0821 51.2274 42.7729 51.5674 42.6905 52.4434C41.7733 52.8144 40.8458 52.5361 39.9492 52.4228C37.3729 52.093 35.0748 51.0728 33.024 49.4754C32.8488 49.3415 32.7149 49.1457 32.5706 48.9808C32.5706 48.8262 32.5706 48.6819 32.5706 48.5274C32.1584 42.8182 31.7359 37.1193 31.3236 31.4102L31.2927 31.4308Z" fill="#2A77B7"/>
<path d="M42.6697 52.455C42.7522 51.5893 43.051 51.239 43.8755 51.239C47.5751 51.2286 51.285 51.239 54.9846 51.239C55.6751 51.239 56.1491 51.5275 56.1904 52.2901C56.1904 53.063 56.1904 53.8359 56.1904 54.6088C56.1182 55.3302 55.6442 55.6187 55.0052 55.6187C51.2953 55.6393 47.5957 55.6393 43.8858 55.6187C43.0819 55.6187 42.7316 55.2065 42.6594 54.3203C42.6594 53.7019 42.6594 53.0836 42.6697 52.455Z" fill="#C3C3C8"/>
<mask id="mask4_10023_24130" style="mask-type:luminance" maskUnits="userSpaceOnUse" x="42" y="51" width="15" height="5">
<path d="M42.6697 52.456C42.7522 51.5903 43.051 51.2399 43.8755 51.2399C47.5751 51.2296 51.285 51.2399 54.9846 51.2399C55.6751 51.2399 56.1491 51.5285 56.1904 52.2911C56.1904 53.064 56.1904 53.8369 56.1904 54.6098C56.1182 55.3312 55.6442 55.6197 55.0052 55.6197C51.2953 55.6403 47.5957 55.6403 43.8858 55.6197C43.0819 55.6197 42.7316 55.2075 42.6594 54.3212C42.6594 53.7029 42.6594 53.0846 42.6697 52.456Z" fill="white"/>
</mask>
<g mask="url(#mask4_10023_24130)">
<path opacity="0.3" d="M42.6695 56.0419C42.7519 55.1763 43.0508 54.8259 43.8752 54.8259C47.5748 54.8156 51.2848 54.8259 54.9844 54.8259C55.6748 54.8259 56.1489 55.1144 56.1901 55.877C56.1901 56.6499 56.1901 57.4228 56.1901 58.1957C56.118 58.9171 55.6439 59.2056 55.005 59.2056C51.2951 59.2263 47.5954 59.2263 43.8855 59.2056C43.0817 59.2056 42.7313 58.7934 42.6592 57.9072C42.6592 57.2888 42.6592 56.6705 42.6695 56.0419Z" fill="black"/>
</g>
<path d="M66.3309 49.0115C66.5473 45.8375 66.7638 42.6737 66.9905 39.4997C67.1863 36.81 67.3924 34.1203 67.5882 31.4306C69.1649 31.3894 69.5462 31.0699 69.8244 29.5859C70.8412 29.5859 71.3496 30.0806 71.3496 31.0699C71.3496 33.6359 71.4115 36.2123 71.329 38.7783C71.2054 42.7459 69.5874 46.0539 66.7328 48.7848C66.6298 48.8879 66.4752 48.9291 66.3412 49.0012L66.3309 49.0115Z" fill="#FEFCFC"/>
<path d="M31.2928 31.432C31.7153 37.1412 32.1275 42.84 32.5397 48.5492C32.55 48.7038 32.5397 48.848 32.5397 49.0026C31.4474 48.4255 30.8084 47.4053 30.1386 46.4572C28.4073 44.0045 27.5107 41.2736 27.521 38.2541C27.521 35.6778 27.5519 33.1118 27.5004 30.5354C27.4901 29.7728 27.6756 29.4534 28.4485 29.5873C28.6443 29.6183 28.8504 29.5873 29.0565 29.5873C29.376 31.1022 29.7367 31.4011 31.2825 31.432H31.2928Z" fill="#FEFCFC"/>
<path d="M21.3066 0.958008H20.3997C19.8021 0.958008 19.3176 1.39696 19.3176 1.93844V53.3782C19.3176 53.9197 19.8021 54.3586 20.3997 54.3586H21.3066C21.9042 54.3586 22.3886 53.9197 22.3886 53.3782V1.93844C22.3886 1.39696 21.9042 0.958008 21.3066 0.958008Z" fill="#9499A7"/>
<mask id="mask5_10023_24130" style="mask-type:luminance" maskUnits="userSpaceOnUse" x="19" y="0" width="4" height="55">
<path d="M21.3066 0.958008H20.3997C19.8021 0.958008 19.3176 1.39696 19.3176 1.93844V53.3782C19.3176 53.9197 19.8021 54.3586 20.3997 54.3586H21.3066C21.9042 54.3586 22.3886 53.9197 22.3886 53.3782V1.93844C22.3886 1.39696 21.9042 0.958008 21.3066 0.958008Z" fill="white"/>
</mask>
<g mask="url(#mask5_10023_24130)">
<path d="M23.0585 2.01074H22.1516C21.554 2.01074 21.0696 2.4497 21.0696 2.99117V54.4309C21.0696 54.9724 21.554 55.4114 22.1516 55.4114H23.0585C23.6561 55.4114 24.1406 54.9724 24.1406 54.4309V2.99117C24.1406 2.4497 23.6561 2.01074 23.0585 2.01074Z" fill="#798293"/>
</g>
<path d="M40.7529 68.0659H0.953613C2.53033 67.5816 5.72499 60.5636 4.44713 59.9453H37.6098C36.2701 60.5327 39.1556 67.5816 40.7529 68.0659Z" fill="#F4AE67"/>
<mask id="mask6_10023_24130" style="mask-type:luminance" maskUnits="userSpaceOnUse" x="0" y="59" width="41" height="10">
<path d="M40.7529 68.0659H0.953613C2.53033 67.5816 5.72499 60.5636 4.44713 59.9453H37.6098C36.2701 60.5327 39.1556 67.5816 40.7529 68.0659Z" fill="white"/>
</mask>
<g mask="url(#mask6_10023_24130)">
<path d="M42.4018 68.0982H2.60254C4.17926 67.6138 7.37392 60.5959 6.09606 59.9775H39.2587C37.919 60.5649 40.8045 67.6138 42.4018 68.0982Z" fill="#DD9048"/>
</g>
<g opacity="0.7">
<path d="M9.53802 64.3225C9.52772 64.4255 9.1155 66.3217 8.48688 68.0633H6.91016C7.62123 66.3217 8.10558 64.0442 8.10558 64.0236C8.19833 63.632 8.56932 63.3847 8.97123 63.4568C9.36283 63.5393 9.63077 63.9412 9.53802 64.3328V64.3225Z" fill="#060807"/>
</g>
<g opacity="0.7">
<path d="M14.9276 64.3225C14.9173 64.4255 14.5051 66.3217 13.8765 68.0633H12.3101C13.0108 66.3217 13.4952 64.0442 13.4952 64.0236C13.5879 63.632 13.9589 63.3847 14.3608 63.4568C14.7524 63.5393 15.0204 63.9412 14.9276 64.3328V64.3225Z" fill="#060807"/>
</g>
<g opacity="0.7">
<path d="M30.4991 68.0668H28.9327C28.3041 66.3252 27.8919 64.429 27.8816 64.3259C27.7991 63.9343 28.0464 63.5427 28.4381 63.45C28.8297 63.3778 29.2213 63.6252 29.314 64.0168C29.314 64.0477 29.7984 66.3252 30.4991 68.0565V68.0668Z" fill="#060807"/>
</g>
<g opacity="0.7">
<path d="M35.8991 68.0668H34.3224C33.6937 66.3252 33.2815 64.429 33.2712 64.3259C33.1888 63.9343 33.4361 63.5427 33.8277 63.45C34.2193 63.3778 34.6109 63.6252 34.6933 64.0168C34.7037 64.0477 35.188 66.3252 35.9094 68.0565L35.8991 68.0668Z" fill="#060807"/>
</g>
<g opacity="0.7">
<path d="M19.4414 64.1584V68.0539H17.978V64.1584C17.978 63.7668 18.3181 63.4268 18.7097 63.4268C19.1013 63.4268 19.4414 63.7668 19.4414 64.1584Z" fill="#060807"/>
</g>
<g opacity="0.7">
<path d="M24.8209 64.1584V68.0539H23.3575V64.1584C23.3575 63.7668 23.6976 63.4268 24.0892 63.4268C24.4808 63.4268 24.8209 63.7668 24.8209 64.1584Z" fill="#060807"/>
</g>
<path d="M14.6802 52.3799H27.026C27.7267 52.3799 28.2935 52.9467 28.2935 53.6474V56.6257H13.4126V53.6474C13.4126 52.9467 13.9794 52.3799 14.6802 52.3799Z" fill="#F4AE67"/>
<mask id="mask7_10023_24130" style="mask-type:luminance" maskUnits="userSpaceOnUse" x="13" y="52" width="16" height="5">
<path d="M14.68 52.3799H27.0259C27.7266 52.3799 28.2934 52.9467 28.2934 53.6474V56.6257H13.4125V53.6474C13.4125 52.9467 13.9793 52.3799 14.68 52.3799Z" fill="white"/>
</mask>
<g mask="url(#mask7_10023_24130)">
<path d="M15.9374 54.0488H28.2832C28.9839 54.0488 29.5507 54.6156 29.5507 55.3164V58.2946H14.6698V55.3164C14.6698 54.6156 15.2366 54.0488 15.9374 54.0488Z" fill="#DD9048"/>
</g>
<path d="M5.57041 55.7285H36.1361C36.8369 55.7285 37.4037 56.2953 37.4037 56.9961V59.9743H4.30286V56.9961C4.30286 56.2953 4.86965 55.7285 5.57041 55.7285Z" fill="#9499A8"/>
<mask id="mask8_10023_24130" style="mask-type:luminance" maskUnits="userSpaceOnUse" x="4" y="55" width="34" height="5">
<path d="M5.57005 55.7275H36.1357C36.8365 55.7275 37.4033 56.2943 37.4033 56.9951V59.9733H4.30249V56.9951C4.30249 56.2943 4.86928 55.7275 5.57005 55.7275Z" fill="white"/>
</mask>
<g mask="url(#mask8_10023_24130)">
<path d="M7.24998 58.7373H37.8157C38.5164 58.7373 39.0832 59.3041 39.0832 60.0049V62.9831H5.98242V60.0049C5.98242 59.3041 6.54922 58.7373 7.24998 58.7373Z" fill="#798293"/>
</g>
</svg>
