<svg width="74" height="43" viewBox="0 0 74 43" fill="none" xmlns="http://www.w3.org/2000/svg">
<path d="M68.7592 0.714844H5.24068C2.8765 0.714844 0.959961 2.64186 0.959961 5.01895V38.2312C0.959961 40.6083 2.8765 42.5353 5.24068 42.5353H68.7592C71.1234 42.5353 73.04 40.6083 73.04 38.2312V5.01895C73.04 2.64186 71.1234 0.714844 68.7592 0.714844Z" fill="#8D8D8E"/>
<path d="M67.4921 0.714844H5.19808C2.85743 0.714844 0.959961 2.62268 0.959961 4.97612V38.2741C0.959961 40.6275 2.85743 42.5353 5.19808 42.5353H67.4921C69.8327 42.5353 71.7302 40.6275 71.7302 38.2741V4.97612C71.7302 2.62268 69.8327 0.714844 67.4921 0.714844Z" fill="#E5E5E5"/>
<path d="M23.8116 36.3789C31.9922 36.3789 38.6238 29.7111 38.6238 21.4858C38.6238 13.2606 31.9922 6.59277 23.8116 6.59277C15.6311 6.59277 8.99951 13.2606 8.99951 21.4858C8.99951 29.7111 15.6311 36.3789 23.8116 36.3789Z" fill="#C2C1C0"/>
<path d="M25.0576 13.627H22.5552C22.3141 13.627 22.1187 13.8235 22.1187 14.0659V19.2587C22.1187 19.5011 22.3141 19.6977 22.5552 19.6977H25.0576C25.2988 19.6977 25.4942 19.5011 25.4942 19.2587V14.0659C25.4942 13.8235 25.2988 13.627 25.0576 13.627Z" fill="#E5E5E5"/>
<path d="M24.8234 13.627H22.5339C22.3046 13.627 22.1187 13.8139 22.1187 14.0445V19.0124C22.1187 19.2431 22.3046 19.43 22.5339 19.43H24.8234C25.0527 19.43 25.2387 19.2431 25.2387 19.0124V14.0445C25.2387 13.8139 25.0527 13.627 24.8234 13.627Z" fill="#282828"/>
<path d="M26.3567 24.3018V26.8179C26.3567 27.0603 26.5522 27.2568 26.7933 27.2568H31.9578C32.1989 27.2568 32.3944 27.0603 32.3944 26.8179V24.3018C32.3944 24.0593 32.1989 23.8628 31.9578 23.8628H26.7933C26.5522 23.8628 26.3567 24.0593 26.3567 24.3018Z" fill="#E5E5E5"/>
<path d="M26.3461 24.5471V26.849C26.3461 27.0796 26.532 27.2666 26.7614 27.2666H31.7023C31.9316 27.2666 32.1176 27.0796 32.1176 26.849V24.5471C32.1176 24.3165 31.9316 24.1295 31.7023 24.1295H26.7614C26.532 24.1295 26.3461 24.3165 26.3461 24.5471Z" fill="#282828"/>
<path d="M15.1118 24.3115V26.8276C15.1118 27.0701 15.3073 27.2666 15.5484 27.2666H20.713C20.9541 27.2666 21.1495 27.0701 21.1495 26.8276V24.3115C21.1495 24.0691 20.9541 23.8726 20.713 23.8726H15.5484C15.3073 23.8726 15.1118 24.0691 15.1118 24.3115Z" fill="#E5E5E5"/>
<path d="M15.1012 24.5802V26.85C15.1012 27.0747 15.2824 27.2568 15.5058 27.2568H20.5C20.7235 27.2568 20.9047 27.0747 20.9047 26.85V24.5802C20.9047 24.3555 20.7235 24.1733 20.5 24.1733H15.5058C15.2824 24.1733 15.1012 24.3555 15.1012 24.5802Z" fill="#282828"/>
<path d="M62.7428 5.84375H46.6315C46.014 5.84375 45.5134 6.34708 45.5134 6.96796V36.2937C45.5134 36.9146 46.014 37.4179 46.6315 37.4179H62.7428C63.3603 37.4179 63.8609 36.9146 63.8609 36.2937V6.96796C63.8609 6.34708 63.3603 5.84375 62.7428 5.84375Z" fill="#C2C1C0"/>
<path d="M59.2181 10.8232H50.1562C49.768 10.8232 49.4534 11.1396 49.4534 11.5299V31.7121C49.4534 32.1023 49.768 32.4187 50.1562 32.4187H59.2181C59.6062 32.4187 59.9209 32.1023 59.9209 31.7121V11.5299C59.9209 11.1396 59.6062 10.8232 59.2181 10.8232Z" fill="#E5E5E5"/>
<mask id="mask0_10023_23587" style="mask-type:luminance" maskUnits="userSpaceOnUse" x="49" y="10" width="11" height="23">
<path d="M59.2181 10.8242H50.1562C49.768 10.8242 49.4534 11.1406 49.4534 11.5309V31.7131C49.4534 32.1033 49.768 32.4197 50.1562 32.4197H59.2181C59.6062 32.4197 59.9209 32.1033 59.9209 31.7131V11.5309C59.9209 11.1406 59.6062 10.8242 59.2181 10.8242Z" fill="white"/>
</mask>
<g mask="url(#mask0_10023_23587)">
<path d="M48.644 30.6523H60.6769V32.9543H48.5056C48.5056 32.9543 48.8464 30.6523 48.644 30.6523Z" fill="url(#paint0_linear_10023_23587)"/>
</g>
<defs>
<linearGradient id="paint0_linear_10023_23587" x1="54.5859" y1="30.2348" x2="54.5859" y2="32.6652" gradientUnits="userSpaceOnUse">
<stop stop-color="white"/>
<stop offset="1"/>
</linearGradient>
</defs>
</svg>
