<svg width="30" height="31" viewBox="0 0 30 31" fill="none" xmlns="http://www.w3.org/2000/svg">
<path d="M13.125 26.4609H5C5 22.0528 8.25964 18.4061 12.5 17.7996M20.622 20.4758C19.7473 19.5019 18.2886 19.2399 17.1926 20.1318C16.0967 21.0236 15.9424 22.5147 16.8031 23.5694C17.289 24.1649 18.4435 25.2088 19.3568 26.0051C19.7899 26.3827 20.0064 26.5716 20.2684 26.6488C20.4918 26.7147 20.7523 26.7147 20.9756 26.6488C21.2376 26.5716 21.4541 26.3827 21.8872 26.0051C22.8005 25.2088 23.955 24.1649 24.4409 23.5694C25.3016 22.5147 25.1661 21.0142 24.0514 20.1318C22.9365 19.2493 21.4968 19.5019 20.622 20.4758ZM18.75 8.96094C18.75 11.7224 16.5114 13.9609 13.75 13.9609C10.9886 13.9609 8.75 11.7224 8.75 8.96094C8.75 6.19951 10.9886 3.96094 13.75 3.96094C16.5114 3.96094 18.75 6.19951 18.75 8.96094Z" stroke="#0076CE" stroke-width="2" stroke-linecap="round" stroke-linejoin="round"/>
</svg>
