<svg width="12" height="16" viewBox="0 0 12 16" fill="none" xmlns="http://www.w3.org/2000/svg">
<path d="M6 0.154297C2.89359 0.154297 0.375 2.67289 0.375 5.7793C0.375 7.0025 0.776016 8.12492 1.44258 9.04414C1.45453 9.06617 1.45641 9.09078 1.47 9.11188L5.22 14.7369C5.39391 14.9977 5.68687 15.1543 6 15.1543C6.31313 15.1543 6.60609 14.9977 6.78 14.7369L10.53 9.11188C10.5438 9.09078 10.5455 9.06617 10.5574 9.04414C11.224 8.12492 11.625 7.0025 11.625 5.7793C11.625 2.67289 9.10641 0.154297 6 0.154297ZM6 7.6543C4.96453 7.6543 4.125 6.81477 4.125 5.7793C4.125 4.74383 4.96453 3.9043 6 3.9043C7.03547 3.9043 7.875 4.74383 7.875 5.7793C7.875 6.81477 7.03547 7.6543 6 7.6543Z" fill="#0076CE"/>
</svg>
