<svg width="149" height="33" viewBox="0 0 149 33" fill="none" xmlns="http://www.w3.org/2000/svg">
<g clip-path="url(#clip0_11244_176)">
<path d="M13.9462 0.541992V13.3214C11.8909 13.7532 9.96729 14.5412 8.24567 15.62V6.48284C8.24567 5.38701 8.76702 4.35673 9.65218 3.70408L13.9462 0.541992Z" fill="#001D33"/>
<path d="M29.8084 9.46209H28.9261C26.2735 9.46209 24.1236 11.601 24.1236 14.2401C22.3461 13.5462 20.4283 13.1315 18.4245 13.0503C18.4245 8.01428 22.528 3.93164 27.5898 3.93164H29.8084V9.46209Z" fill="#001D33"/>
<path d="M24.1677 20.0578V23.8284L18.4686 26.8494V19.0176C20.4667 19.0489 22.3831 19.4137 24.1677 20.0578Z" fill="#001D33"/>
<path d="M24.0715 14.7133V19.584C22.2883 18.9399 20.3704 18.5765 18.3724 18.5437V13.5234C20.3762 13.6047 22.2954 14.0193 24.0715 14.7133Z" fill="#001D33"/>
<path d="M24.117 14.7481V19.6159C24.0869 19.6059 24.0597 19.5945 24.0297 19.5846C22.2464 18.9405 20.3286 18.5771 18.3305 18.5443C18.2317 18.5429 18.1329 18.5415 18.0341 18.5415C16.6261 18.5415 15.2583 18.7053 13.9448 19.0174C11.8795 19.5048 9.9559 20.3555 8.2443 21.4983C4.58192 23.9408 1.89063 27.7156 0.875132 32.1275C0.764845 32.6063 0.058723 32.5507 0.030077 32.0605C0.0100249 31.7171 0 31.3708 0 31.0231C0 24.773 3.29142 19.2867 8.2443 16.1873C9.96593 15.11 11.8895 14.3206 13.9448 13.8888C15.1251 13.6409 16.3482 13.5098 17.6029 13.5098C17.8464 13.5098 18.0885 13.514 18.3305 13.5254C20.3343 13.6052 22.2536 14.0213 24.0297 14.7153C24.0597 14.7253 24.0884 14.7367 24.117 14.7481Z" fill="#0076CE"/>
<path d="M13.9462 19.584V25.1173C13.9462 26.2715 13.4707 27.3745 12.6314 28.1696L8.24713 32.3207V22.0649C9.95729 20.9221 11.8809 20.0713 13.9462 19.584Z" fill="#001D33"/>
<path d="M39.8084 22.8562V10.1436H41.948V15.3391H52.0189V10.1436H54.1466V22.8562H52.0189V17.094H41.948V22.8562H39.8084Z" fill="#001D33"/>
<path d="M58.1465 14.8967C58.1465 13.9419 58.3284 13.2918 58.6898 12.9418C59.0536 12.5942 59.7285 12.418 60.7217 12.418H68.3012C69.2921 12.418 69.9694 12.5918 70.3331 12.9418C70.6969 13.2895 70.8764 13.9419 70.8764 14.8967V20.3923C70.8764 21.3471 70.6969 21.9971 70.3379 22.34C69.9789 22.6853 69.2992 22.8567 68.3012 22.8567H60.7217C59.7141 22.8567 59.0321 22.6876 58.6779 22.3448C58.3236 22.0043 58.1465 21.3519 58.1465 20.3899V14.8967ZM60.1282 21.2828H68.8924V13.9704H60.1282V21.2828Z" fill="#001D33"/>
<path d="M76.4608 14.3514C76.4608 14.5038 76.468 14.7133 76.4848 14.9776C76.5015 15.411 76.5087 15.6872 76.5087 15.8087V22.8567H74.8765V12.418H76.5087L81.7308 19.1898L86.5294 12.418H88.3674V22.8567H86.5294V15.8087C86.5294 15.5515 86.5389 15.3039 86.5605 15.0634C86.5796 14.8229 86.6107 14.5895 86.6514 14.3657C86.5389 14.6943 86.4217 14.9848 86.302 15.2372C86.1823 15.4896 86.0675 15.6801 85.9646 15.8087L81.9271 21.209H81.4077L77.2243 15.8563C77.0783 15.6729 76.9419 15.4563 76.8126 15.2062C76.6834 14.9562 76.5661 14.6729 76.4608 14.3514Z" fill="#001D33"/>
<path d="M94.337 22.8563H92.3674V12.4414H94.337V22.8563Z" fill="#001D33"/>
<path d="M98.337 22.8538V12.415H108.903V13.9675H100.319V16.6486H105.493V18.2011H100.319V21.3275H108.999V22.8561H98.337V22.8538Z" fill="#001D33"/>
<path d="M112.999 22.8562V10.1436H125.162V11.8746H115.139V16.0368H120.856V17.7321H115.139V22.8562H112.999Z" fill="#001D33"/>
<path d="M131.131 22.8563H129.162V12.4414H131.131V22.8563Z" fill="#001D33"/>
<path d="M135.218 22.8562L140.488 17.5154L135.131 12.415H137.814L141.598 16.2034L145.068 12.415H147.51L142.685 17.263L148.584 22.8562H145.808L141.577 18.6226L137.769 22.8562H135.218Z" fill="#001D33"/>
</g>
<defs>
<clipPath id="clip0_11244_176">
<rect width="148.584" height="31.9166" fill="white" transform="translate(0 0.541992)"/>
</clipPath>
</defs>
</svg>
