<svg width="21" height="20" viewBox="0 0 21 20" fill="none" xmlns="http://www.w3.org/2000/svg">
<path d="M8.58944 4.42982L9.13027 5.39893C9.61836 6.27349 9.42244 7.42078 8.65369 8.18951C8.65369 8.18951 7.72134 9.12201 9.41186 10.8126C11.1019 12.5026 12.0349 11.5708 12.0349 11.5708C12.8037 10.802 13.9509 10.6061 14.8255 11.0942L15.7946 11.635C17.1153 12.372 17.2712 14.224 16.1104 15.3848C15.4129 16.0823 14.5584 16.6251 13.6139 16.6608C12.0238 16.7212 9.32336 16.3188 6.61452 13.6099C3.90572 10.9011 3.50328 8.20069 3.56357 6.61058C3.59937 5.66601 4.14211 4.81153 4.83962 4.11403C6.00041 2.95324 7.85242 3.10921 8.58944 4.42982Z" fill="#333333"/>
<path d="M11.274 1.56685C11.3292 1.22611 11.6513 0.994969 11.992 1.05013C12.0131 1.05417 12.081 1.06685 12.1165 1.07477C12.1877 1.09061 12.2869 1.11499 12.4105 1.15101C12.6579 1.22304 13.0034 1.34172 13.418 1.53183C14.2483 1.91246 15.3531 2.57829 16.4996 3.7248C17.6461 4.8713 18.3119 5.97614 18.6925 6.80637C18.8827 7.22105 19.0014 7.56656 19.0734 7.81387C19.1094 7.93755 19.1338 8.03674 19.1496 8.10784C19.1575 8.1434 19.1634 8.17195 19.1674 8.19304L19.1722 8.21904C19.2273 8.55975 18.9983 8.89525 18.6575 8.95041C18.3178 9.00541 17.9977 8.77533 17.9412 8.43625C17.9394 8.42708 17.9346 8.40266 17.9295 8.37958C17.9192 8.33341 17.9014 8.26023 17.8733 8.16343C17.8169 7.96982 17.7189 7.68205 17.5563 7.32731C17.2314 6.61872 16.6473 5.64024 15.6157 4.60868C14.5842 3.57713 13.6057 2.99297 12.8971 2.66811C12.5424 2.50548 12.2546 2.40754 12.0609 2.35114C11.9642 2.32294 11.8425 2.29502 11.7964 2.28474C11.4572 2.22822 11.219 1.90662 11.274 1.56685Z" fill="#333333"/>
<path fill-rule="evenodd" clip-rule="evenodd" d="M11.4627 4.44077C11.5575 4.10887 11.9034 3.91669 12.2353 4.01151L12.0637 4.61247C12.2353 4.01151 12.2353 4.01151 12.2353 4.01151L12.2366 4.01186L12.2378 4.01223L12.2406 4.01304L12.2471 4.01497L12.2636 4.0201C12.2761 4.02412 12.2918 4.02935 12.3105 4.036C12.3479 4.04928 12.3974 4.06816 12.4581 4.09416C12.5795 4.1462 12.7453 4.22655 12.9492 4.34714C13.357 4.58854 13.9138 4.98952 14.568 5.64366C15.2222 6.29781 15.6231 6.85463 15.8645 7.26252C15.9851 7.46628 16.0654 7.63216 16.1175 7.75357C16.1435 7.81424 16.1624 7.8637 16.1757 7.90113C16.1823 7.91984 16.1875 7.93553 16.1916 7.9481L16.1967 7.96459L16.1986 7.97105L16.1994 7.97382L16.1998 7.9751C16.1998 7.9751 16.2002 7.9763 15.5992 8.148L16.2002 7.9763C16.295 8.3082 16.1028 8.6541 15.7709 8.74894C15.4418 8.84294 15.0989 8.65485 15.0007 8.32813L14.9976 8.31915C14.9932 8.30662 14.984 8.28197 14.9686 8.24597C14.9378 8.17402 14.8818 8.05633 14.7888 7.89917C14.603 7.58522 14.2674 7.11085 13.6841 6.52755C13.1008 5.94425 12.6264 5.60867 12.3125 5.42286C12.1553 5.32985 12.0377 5.27393 11.9657 5.2431C11.9297 5.22767 11.905 5.21847 11.8925 5.21403L11.8835 5.21095C11.5568 5.11272 11.3687 4.76985 11.4627 4.44077Z" fill="#333333"/>
</svg>
