<svg width="26" height="27" viewBox="0 0 26 27" fill="none" xmlns="http://www.w3.org/2000/svg">
<g clip-path="url(#clip0_11271_478)">
<path d="M14.5401 9.14486H4.42901C4.23746 9.14486 4.05376 9.06877 3.91832 8.93332C3.78288 8.79788 3.70679 8.61418 3.70679 8.42263V5.53375C3.70679 5.3422 3.78288 5.1585 3.91832 5.02306C4.05376 4.88761 4.23746 4.81152 4.42901 4.81152H14.5401C14.7317 4.81152 14.9154 4.88761 15.0508 5.02306C15.1863 5.1585 15.2623 5.3422 15.2623 5.53375V8.42263C15.2623 8.61418 15.1863 8.79788 15.0508 8.93332C14.9154 9.06877 14.7317 9.14486 14.5401 9.14486ZM5.15123 7.70041H13.8179V6.21263H5.15123V7.70041Z" fill="#0076CE"/>
<path d="M14.5401 10.6475H4.42901C4.23746 10.6475 4.05376 10.7236 3.91832 10.859C3.78288 10.9944 3.70679 11.1781 3.70679 11.3697V14.2008C3.70679 14.3923 3.78288 14.576 3.91832 14.7115C4.05376 14.8469 4.23746 14.923 4.42901 14.923H12.6335L15.2623 12.2508V11.3697C15.2623 11.1781 15.1863 10.9944 15.0508 10.859C14.9154 10.7236 14.7317 10.6475 14.5401 10.6475ZM13.8179 13.4786H5.15123V12.0341H13.8179V13.4786Z" fill="#0076CE"/>
<path d="M7.36096 23.2356V23.1923L7.59207 22.1884H2.26207V3.3673H16.7065V10.7701L18.151 9.40507V2.64507C18.151 2.45353 18.0749 2.26983 17.9394 2.13439C17.804 1.99894 17.6203 1.92285 17.4287 1.92285H1.53985C1.3483 1.92285 1.1646 1.99894 1.02916 2.13439C0.893718 2.26983 0.817627 2.45353 0.817627 2.64507V22.8673C0.817627 23.0588 0.893718 23.2425 1.02916 23.378C1.1646 23.5134 1.3483 23.5895 1.53985 23.5895H7.31763C7.32358 23.4707 7.33806 23.3524 7.36096 23.2356Z" fill="#0076CE"/>
<path d="M15.2623 14.3232L14.699 14.8938C14.8387 14.865 14.9668 14.7954 15.0671 14.6939C15.1673 14.5923 15.2353 14.4634 15.2623 14.3232Z" fill="#0076CE"/>
<path d="M3.70679 19.935C3.70679 20.1265 3.78288 20.3102 3.91832 20.4457C4.05376 20.5811 4.23746 20.6572 4.42901 20.6572H7.92457L8.14123 19.7183L8.23512 19.3211V19.285H5.15123V17.8116H9.73012L11.1746 16.3672H4.42901C4.23746 16.3672 4.05376 16.4433 3.91832 16.5787C3.78288 16.7142 3.70679 16.8979 3.70679 17.0894V19.935Z" fill="#0076CE"/>
<path d="M23.5603 12.5178L21.1264 10.0839C21.0184 9.97557 20.8901 9.88964 20.7488 9.831C20.6075 9.77237 20.456 9.74219 20.3031 9.74219C20.1501 9.74219 19.9986 9.77237 19.8574 9.831C19.7161 9.88964 19.5878 9.97557 19.4797 10.0839L9.57807 20.0433L8.76196 23.5172C8.73141 23.6671 8.73072 23.8215 8.75994 23.9716C8.78916 24.1218 8.84772 24.2647 8.93225 24.3921C9.01678 24.5196 9.12563 24.6291 9.25256 24.7145C9.3795 24.7998 9.52202 24.8593 9.67196 24.8894C9.74641 24.8969 9.82141 24.8969 9.89585 24.8894C9.98434 24.9039 10.0746 24.9039 10.1631 24.8894L13.6659 24.1167L23.5603 14.2006C23.6684 14.0932 23.7542 13.9654 23.8127 13.8248C23.8712 13.6841 23.9014 13.5332 23.9014 13.3808C23.9014 13.2285 23.8712 13.0776 23.8127 12.9369C23.7542 12.7962 23.6684 12.6685 23.5603 12.5611V12.5178ZM12.9292 22.8022L10.2859 23.3872L10.9286 20.7656L18.3531 13.2617L20.3897 15.2983L12.9292 22.8022ZM21.2059 14.4822L19.1692 12.4456L20.3175 11.3117L22.3686 13.3628L21.2059 14.4822Z" fill="#0076CE"/>
</g>
<defs>
<clipPath id="clip0_11271_478">
<rect width="25" height="26" fill="white" transform="translate(0.0354004 0.466797)"/>
</clipPath>
</defs>
</svg>
