<svg width="26" height="31" viewBox="0 0 26 31" fill="none" xmlns="http://www.w3.org/2000/svg">
<g clip-path="url(#clip0_8382_1023)">
<path d="M12.388 23.9531L7.09603 14.7131V13.4811H7.71203C8.70137 13.4811 9.53203 13.3878 10.204 13.2011C10.8947 13.0145 11.436 12.7065 11.828 12.2771C12.22 11.8478 12.4534 11.2598 12.528 10.5131H7.09603V8.72112H12.5C12.3694 8.03046 12.108 7.47046 11.716 7.04112C11.324 6.59312 10.792 6.26646 10.12 6.06112C9.4667 5.85579 8.66403 5.75312 7.71203 5.75312H7.09603V3.96112H18.688V5.75312H13.396C13.8254 6.10779 14.18 6.52779 14.46 7.01312C14.74 7.49846 14.9174 8.06779 14.992 8.72112H18.688V10.5131H15.048C14.9174 11.8758 14.3947 12.9398 13.48 13.7051C12.584 14.4518 11.3894 14.9278 9.89603 15.1331L15.244 23.9531H12.388Z" fill="#0076CE"/>
</g>
<defs>
<clipPath id="clip0_8382_1023">
<rect width="25" height="30" fill="white" transform="translate(0.840576 0.210938)"/>
</clipPath>
</defs>
</svg>
