<svg width="19" height="19" viewBox="0 0 19 19" fill="none" xmlns="http://www.w3.org/2000/svg">
<path fill-rule="evenodd" clip-rule="evenodd" d="M3.58411 8.75C3.58411 5.85051 5.93461 3.5 8.83411 3.5C11.7336 3.5 14.0841 5.85051 14.0841 8.75C14.0841 11.6495 11.7336 14 8.83411 14C5.93461 14 3.58411 11.6495 3.58411 8.75ZM8.83411 2C5.10619 2 2.08411 5.02208 2.08411 8.75C2.08411 12.478 5.10619 15.5 8.83411 15.5C10.4279 15.5 11.8926 14.9476 13.0474 14.0239L15.8038 16.7803C16.0967 17.0732 16.5716 17.0732 16.8644 16.7803C17.1573 16.4875 17.1573 16.0126 16.8644 15.7197L14.108 12.9633C15.0317 11.8085 15.5841 10.3438 15.5841 8.75C15.5841 5.02208 12.5621 2 8.83411 2Z" fill="#4E4E4E"/>
</svg>
