<svg width="16" height="10" viewBox="0 0 16 10" fill="none" xmlns="http://www.w3.org/2000/svg">
<path d="M15.1106 0.954385C14.8996 0.74348 14.6135 0.625 14.3152 0.625C14.0169 0.625 13.7308 0.74348 13.5198 0.954385L7.95106 6.52314L2.38231 0.954385C2.17013 0.749457 1.88595 0.636063 1.59098 0.638626C1.29601 0.641189 1.01384 0.759505 0.80526 0.968089C0.596676 1.17667 0.478362 1.45884 0.475799 1.75381C0.473235 2.04878 0.586629 2.33296 0.791557 2.54513L7.15568 8.90926C7.36665 9.12017 7.65275 9.23865 7.95106 9.23865C8.24937 9.23865 8.53546 9.12017 8.74643 8.90926L15.1106 2.54513C15.3215 2.33417 15.4399 2.04807 15.4399 1.74976C15.4399 1.45145 15.3215 1.16535 15.1106 0.954385Z" fill="#484848"/>
</svg>
